<svg width="73" height="32" viewBox="0 0 73 32" fill="none" xmlns="http://www.w3.org/2000/svg">
<path d="M13.8021 4.50993C14.6616 3.43489 15.2447 1.99157 15.091 0.516602C13.8329 0.579193 12.2976 1.34669 11.4088 2.42244C10.6106 3.34378 9.90431 4.84755 10.0885 6.26064C11.5006 6.38312 12.9117 5.55474 13.8021 4.50993Z" fill="url(#paint0_linear_1_262)"/>
<path d="M15.0749 6.53654C13.0239 6.41435 11.28 7.70054 10.3005 7.70054C9.3206 7.70054 7.82067 6.59813 6.19842 6.62779C4.08698 6.65887 2.12781 7.85267 1.05634 9.75139C-1.14749 13.5498 0.474764 19.1842 2.61786 22.2777C3.65853 23.8082 4.91294 25.4934 6.56556 25.4328C8.12707 25.3715 8.73916 24.4217 10.6372 24.4217C12.5339 24.4217 13.0852 25.4328 14.7381 25.4022C16.4524 25.3715 17.524 23.8709 18.5646 22.3389C19.7586 20.5942 20.2474 18.9096 20.278 18.8171C20.2472 18.7864 16.9726 17.5302 16.9423 13.7634C16.9113 10.6094 19.5132 9.10907 19.6357 9.01611C18.1666 6.84322 15.8708 6.59813 15.0749 6.53654Z" fill="url(#paint1_linear_1_262)"/>
<path d="M32.9335 2.26804C37.3914 2.26804 40.4954 5.34088 40.4954 9.81469C40.4954 14.3045 37.3274 17.3933 32.8217 17.3933H27.8861V25.2424H24.3201V2.26804H32.9335ZM27.886 14.4H31.9777C35.0825 14.4 36.8494 12.7284 36.8494 9.83066C36.8494 6.93319 35.0825 5.27729 31.9937 5.27729H27.886V14.4Z" fill="url(#paint2_linear_1_262)"/>
<path d="M41.4272 20.4821C41.4272 17.5524 43.6721 15.7534 47.6527 15.5305L52.2377 15.2599V13.9704C52.2377 12.1077 50.9799 10.9931 48.8787 10.9931C46.8881 10.9931 45.6462 11.9482 45.3441 13.445H42.0962C42.2872 10.4198 44.8662 8.19089 49.0059 8.19089C53.0657 8.19089 55.6608 10.3403 55.6608 13.6995V25.2424H52.3649V22.4881H52.2857C51.3146 24.351 49.1968 25.529 46.9999 25.529C43.72 25.529 41.4272 23.4909 41.4272 20.4821ZM52.2376 18.9697V17.6482L48.114 17.9029C46.0601 18.0463 44.898 18.9538 44.898 20.3867C44.898 21.8513 46.1079 22.8067 47.9548 22.8067C50.3589 22.8064 52.2376 21.1507 52.2376 18.9697Z" fill="url(#paint3_linear_1_262)"/>
<path d="M58.7721 31.404V28.6178C59.0265 28.6814 59.5995 28.6813 59.8862 28.6813C61.4782 28.6813 62.3381 28.0128 62.8632 26.2933C62.8632 26.2614 63.1661 25.2743 63.1661 25.2583L57.1162 8.49329H60.8413L65.0769 22.1219H65.1402L69.3758 8.49329H73.0054L66.732 26.1179C65.2996 30.1781 63.6437 31.4836 60.1729 31.4836C59.8862 31.4836 59.0263 31.4516 58.7721 31.404Z" fill="url(#paint4_linear_1_262)"/>
<defs>
<linearGradient id="paint0_linear_1_262" x1="12.5873" y1="0.516602" x2="12.5873" y2="6.27268" gradientUnits="userSpaceOnUse">
<stop stop-color="#EDEDED"/>
<stop offset="1" stop-color="#878787"/>
</linearGradient>
<linearGradient id="paint1_linear_1_262" x1="10.1417" y1="6.52835" x2="10.1417" y2="25.4344" gradientUnits="userSpaceOnUse">
<stop stop-color="#EDEDED"/>
<stop offset="1" stop-color="#878787"/>
</linearGradient>
<linearGradient id="paint2_linear_1_262" x1="32.4078" y1="2.26804" x2="32.4078" y2="25.2424" gradientUnits="userSpaceOnUse">
<stop stop-color="#EDEDED"/>
<stop offset="1" stop-color="#878787"/>
</linearGradient>
<linearGradient id="paint3_linear_1_262" x1="48.544" y1="8.19089" x2="48.544" y2="25.529" gradientUnits="userSpaceOnUse">
<stop stop-color="#EDEDED"/>
<stop offset="1" stop-color="#878787"/>
</linearGradient>
<linearGradient id="paint4_linear_1_262" x1="65.0608" y1="8.49329" x2="65.0608" y2="31.4836" gradientUnits="userSpaceOnUse">
<stop stop-color="#EDEDED"/>
<stop offset="1" stop-color="#878787"/>
</linearGradient>
</defs>
</svg>
