<svg width="1440" height="305" viewBox="0 0 1440 305" fill="none" xmlns="http://www.w3.org/2000/svg">
<path d="M1569.13 3.9504L1555.48 1M1569.13 3.9504H1528.69M1569.13 3.9504L1583.23 6.99823M1569.13 3.9504H1597.76M1555.48 1L1560.45 1.00115L1565.36 1.00754L1570.17 1.0255L1574.83 1.06088L1579.29 1.11828L1583.5 1.20469L1587.41 1.32473L1591.04 1.4778L1594.15 1.68947L1596.99 1.93476L1597.76 2.02068V3.9504M1555.48 1H1515.7M1515.7 1H1475.91M1515.7 1L1528.69 3.9504M1475.91 1H1436.13M1475.91 1L1488.26 3.9504M1436.13 1H1396.34M1436.13 1L1447.82 3.9504M1396.34 1H1356.56M1396.34 1L1407.39 3.9504M1356.56 1H1316.77M1356.56 1L1366.96 3.9504M1316.77 1H1276.99M1316.77 1L1326.52 3.9504M1276.99 1H1237.2M1276.99 1L1286.09 3.9504M1237.2 1H1197.42M1237.2 1L1245.65 3.9504M1197.42 1H1157.63M1197.42 1L1205.22 3.9504M1157.63 1H1117.85M1157.63 1L1164.78 3.9504M1117.85 1H1078.06M1117.85 1L1124.35 3.9504M1078.06 1H1038.28M1078.06 1L1079.51 1.7289L1081.7 2.83241L1083.91 3.9504M1038.28 1H998.495M1038.28 1L1039.56 1.7289L1043.48 3.9504M998.495 1H958.71M998.495 1L1003.04 3.9504M958.71 1H918.924M958.71 1L960.156 2.09537L961.622 3.20352L962.114 3.57639L962.609 3.9504M918.924 1H879.14M918.924 1L920.13 2.09537L920.536 2.46302L920.943 2.83241L922.174 3.9504M879.14 1H839.355M879.14 1L881.739 3.9504M839.355 1L839.595 1.36357L839.836 1.7289L841.057 3.57639L841.304 3.9504M839.355 1H799.57M799.57 1H759.785M799.57 1L800.87 3.9504M759.785 1H720M759.785 1L760.026 2.09537L760.435 3.9504M720 1H680.215M720 1V3.9504M680.215 1H640.43M680.215 1L679.974 2.09537L679.565 3.9504M640.43 1H600.645M640.43 1L639.131 3.9504M600.645 1L600.405 1.36357L600.164 1.7289L598.944 3.57639L598.696 3.9504M600.645 1H560.86M560.86 1H521.075M560.86 1L558.591 3.57639L558.261 3.9504M521.075 1H481.29M521.075 1L519.87 2.09537L519.464 2.46302L518.648 3.20352L518.239 3.57639L517.826 3.9504M481.29 1H441.506M481.29 1L479.844 2.09537L478.378 3.20352L477.886 3.57639L477.392 3.9504M441.506 1H401.721M441.506 1L436.958 3.9504M401.721 1H361.935M401.721 1L400.437 1.7289L396.523 3.9504M361.935 1H322.151M361.935 1L356.088 3.9504M322.151 1H282.366M322.151 1L315.653 3.9504M282.366 1H242.58M282.366 1L275.219 3.9504M242.58 1H202.796M242.58 1L234.784 3.9504M202.796 1H163.011M202.796 1L194.349 3.9504M163.011 1H123.226M163.011 1L153.914 3.9504M123.226 1H83.4408M123.226 1L113.48 3.9504M83.4408 1H43.6562M83.4408 1L73.0448 3.9504M43.6562 1H3.87152M43.6562 1L32.6101 3.9504M3.87152 1H-35.9141M3.87152 1L-7.82469 3.9504M-35.9141 1H-75.6987M-35.9141 1L-48.2585 3.9504M-75.6987 1H-115.483M-75.6987 1L-88.6933 3.9504M-115.483 1L-120.448 1.00115L-125.362 1.00754L-130.173 1.0255L-134.834 1.06088L-139.292 1.11828L-143.501 1.20469L-147.409 1.32473L-151.037 1.4778L-154.151 1.68947L-156.985 1.93476L-157.764 2.02069V3.9504M-115.483 1L-129.128 3.9504M-48.2585 3.9504H-7.82469M-48.2585 3.9504H-88.6933M-48.2585 3.9504L-61.0145 6.99823M-7.82469 3.9504L-19.9086 6.99823M-7.82469 3.9504H32.6101M113.48 3.9504H153.914M113.48 3.9504H73.0448M113.48 3.9504L110.994 4.70308L103.41 6.99823M153.914 3.9504L144.516 6.99823M153.914 3.9504H194.349M275.219 3.9504H315.653M275.219 3.9504H234.784M275.219 3.9504L273.395 4.70308L272.477 5.08116L267.834 6.99823M315.653 3.9504L314.826 4.32558L313.996 4.70308L308.94 6.99823M315.653 3.9504H356.088M436.958 3.9504L436.378 4.32558L432.258 6.99823M436.958 3.9504H477.392M436.958 3.9504H396.523M477.392 3.9504L476.398 4.70308L475.897 5.08116L475.395 5.46157L473.364 6.99823M477.392 3.9504H517.826M598.696 3.9504H639.131M598.696 3.9504H558.261M598.696 3.9504L596.682 6.99823M639.131 3.9504L638.965 4.32558L638.8 4.70308L638.632 5.08116L638.128 6.22642L637.788 6.99823M639.131 3.9504H679.565M760.435 3.9504H800.87M760.435 3.9504H720M760.435 3.9504L761.106 6.99823M800.87 3.9504L801.035 4.32558L801.201 4.70308L801.368 5.08116L802.212 6.99823M800.87 3.9504H841.304M922.174 3.9504H962.609M922.174 3.9504H881.739M922.174 3.9504L923.002 4.70308L924.681 6.22642L925.104 6.61146L925.53 6.99823M962.609 3.9504L963.603 4.70308L964.104 5.08116L964.606 5.46157L966.636 6.99823M962.609 3.9504H1003.04M1083.91 3.9504H1124.35M1083.91 3.9504H1043.48M1083.91 3.9504L1085.4 4.70308L1086.15 5.08116L1089.95 6.99823M1124.35 3.9504L1125.17 4.32558L1126 4.70308L1131.06 6.99823M1124.35 3.9504H1164.78M1245.65 3.9504H1286.09M1245.65 3.9504H1205.22M1245.65 3.9504L1247.81 4.70308L1248.89 5.08116L1254.38 6.99823M1286.09 3.9504L1295.48 6.99823M1286.09 3.9504H1326.52M1407.39 3.9504H1447.82M1407.39 3.9504H1366.96M1407.39 3.9504L1418.8 6.99823M1447.82 3.9504L1459.91 6.99823M1447.82 3.9504H1488.26M-157.906 31.5409H-157.764M-117.208 31.5409L-101.77 27.647M-117.208 31.5409L-133.237 35.5838M-117.208 31.5409H-70.6964M-117.208 31.5409H-157.764M-101.77 27.647H-147.424M-101.77 27.647L-86.8911 23.8941M-101.77 27.647H-56.1164M-147.424 27.647L-131.718 23.8941M-147.424 27.647H-157.764M-147.424 27.647L-157.764 30.1174M-101.955 16.7813H-58.6939M-101.955 16.7813L-87.8393 13.4082M-101.955 16.7813H-145.215M-101.955 16.7813L-116.572 20.2745M-58.6939 16.7813L-45.3208 13.4082M-58.6939 16.7813L-72.5415 20.2745M-58.6939 16.7813H-15.4329M-87.8393 13.4082H-45.3208M-87.8393 13.4082L-74.2001 10.1493M-87.8393 13.4082H-130.357M-45.3208 13.4082H-2.80314M-45.3208 13.4082L-32.4003 10.1493M-158.21 93.002H-157.764M-120.68 93.002L-100.773 86.5462M-120.68 93.002L-141.576 99.779M-120.68 93.002H-60.6305M-120.68 93.002H-157.764M-100.773 86.5462L-81.7864 80.3891M-100.773 86.5462H-42.1462M-100.773 86.5462H-157.764M-139.057 80.3891H-81.7864M-139.057 80.3891L-119.635 74.5103M-139.057 80.3891H-157.764M-139.057 80.3891L-157.764 86.0514M-101.072 68.8913H-46.3339M-101.072 68.8913L-83.3115 63.5159M-101.072 68.8913H-155.809M-101.072 68.8913L-119.635 74.5103M-46.3339 68.8913L-29.7569 63.5159M-46.3339 68.8913L-63.6597 74.5103M-46.3339 68.8913H8.40481M-83.3115 63.5159H-29.7569M-83.3115 63.5159H-136.865M-83.3115 63.5159L-66.303 58.3677M-29.7569 63.5159L-13.8831 58.3677M-29.7569 63.5159H23.7968M-34.3597 48.6989H15.9307M-34.3597 48.6989L-19.3417 44.1532M-34.3597 48.6989H-84.6501M-34.3597 48.6989L-50.0004 53.433M15.9307 48.6989L29.9475 44.1532M15.9307 48.6989L1.33332 53.433M15.9307 48.6989H66.222M-19.3417 44.1532H29.9475M-19.3417 44.1532H-68.6309M-19.3417 44.1532L-4.90979 39.785M29.9475 44.1532L43.4175 39.785M29.9475 44.1532H79.2376M22.3265 31.5409H68.8379M22.3265 31.5409L35.1912 27.647M22.3265 31.5409H-24.1849M22.3265 31.5409L8.96896 35.5838M68.8379 31.5409L80.845 27.647M68.8379 31.5409L56.371 35.5838M68.8379 31.5409H115.349M35.1912 27.647H80.845M35.1912 27.647H-10.4626M35.1912 27.647L47.5906 23.8941M80.845 27.647L92.4178 23.8941M80.845 27.647H126.499M71.0881 16.7813H114.349M71.0881 16.7813L82.2321 13.4082M71.0881 16.7813H27.8281M71.0881 16.7813L59.5483 20.2745M114.349 16.7813L124.75 13.4082M114.349 16.7813L103.578 20.2745M114.349 16.7813H157.61M82.2321 13.4082H124.75M82.2321 13.4082L93.0003 10.1493M82.2321 13.4082H39.7145M124.75 13.4082H167.268M124.75 13.4082L134.8 10.1493M-126.999 204.926L-98.9823 192.205M-126.999 204.926L-157.003 218.548M-126.999 204.926H-42.2998M-126.999 204.926H-157.764M-98.9823 192.205L-72.7582 180.299M-98.9823 192.205H-17.0842M-98.9823 192.205H-157.764M-99.5511 158.636H-25.0463M-99.5511 158.636L-75.6091 148.755M-99.5511 158.636L-124.979 169.132M-99.5511 158.636H-157.764M-25.0463 158.636L-3.28134 148.755M-25.0463 158.636L-48.1625 169.132M-25.0463 158.636H49.4585M-75.6091 148.755H-3.28134M-75.6091 148.755H-147.937M-75.6091 148.755L-53.0259 139.433M-3.28134 148.755L17.2492 139.433M-3.28134 148.755H69.0473M-11.5003 122.293H55.0004M-11.5003 122.293L7.63401 114.396M-11.5003 122.293H-78.0001M-11.5003 122.293L-31.6898 130.627M55.0004 122.293L72.3947 114.396M55.0004 122.293L36.645 130.627M55.0004 122.293H121.5M7.63401 114.396H72.3947M7.63401 114.396H-57.1267M7.63401 114.396L25.7919 106.901M72.3947 114.396L88.9022 106.901M72.3947 114.396H137.155M59.466 93.002H119.515M59.466 93.002L75.1076 86.5462M59.466 93.002H-0.582221M59.466 93.002L43.0481 99.779M119.515 93.002L133.734 86.5462M119.515 93.002L104.589 99.779M119.515 93.002H179.563M75.1076 86.5462H133.734M75.1076 86.5462H16.4811M75.1076 86.5462L90.025 80.3891M133.734 86.5462L147.295 80.3891M133.734 86.5462H192.36M117.881 68.8913H172.619M117.881 68.8913L130.905 63.5159M117.881 68.8913H63.1425M117.881 68.8913L104.268 74.5103M172.619 68.8913L184.46 63.5159M172.619 68.8913L160.243 74.5103M172.619 68.8913H227.357M130.905 63.5159H184.46M130.905 63.5159H77.3514M130.905 63.5159L143.378 58.3677M184.46 63.5159L195.798 58.3677M184.46 63.5159H238.013M166.803 48.6989H217.093M166.803 48.6989L177.816 44.1532M166.803 48.6989H116.512M166.803 48.6989L155.333 53.433M217.093 48.6989L218.368 48.1207L227.105 44.1532M217.093 48.6989L206.667 53.433M217.093 48.6989H267.385M177.816 44.1532H227.105M177.816 44.1532H128.527M177.816 44.1532L188.4 39.785M227.105 44.1532L236.727 39.785M227.105 44.1532H276.395M208.372 31.5409H254.885M208.372 31.5409L217.807 27.647M208.372 31.5409H161.861M208.372 31.5409L198.577 35.5838M254.885 31.5409L263.461 27.647M254.885 31.5409L251.585 33.0393L245.979 35.5838M254.885 31.5409H301.396M217.807 27.647H263.461M217.807 27.647H172.154M217.807 27.647L226.9 23.8941M263.461 27.647L271.727 23.8941M263.461 27.647H309.115M244.131 16.7813H287.392M244.131 16.7813L252.303 13.4082M244.131 16.7813H200.871M244.131 16.7813L235.669 20.2745M287.392 16.7813L292.989 14.2409L293.907 13.8234L294.822 13.4082M287.392 16.7813L279.699 20.2745M287.392 16.7813H330.653M252.303 13.4082H294.822M252.303 13.4082L260.2 10.1493M252.303 13.4082H209.786M294.822 13.4082H337.34M294.822 13.4082L302 10.1493M-96.3116 349.833H20.3049M-96.3116 349.833L-59.5918 326.016M-96.3116 349.833L-136.661 376.004M-96.3116 349.833L-157.764 349.833M20.3049 349.833L51.7792 326.016M20.3049 349.833L-14.2808 376.004M20.3049 349.833H136.92M-59.5918 326.016H51.7792M-59.5918 326.016L-26.0328 304.25M-59.5918 326.016H-157.764M51.7792 326.016L80.5433 304.25M51.7792 326.016H163.149M33.1038 265.893H131.232M33.1038 265.893L59.2904 248.908M33.1038 265.893H-65.0239M33.1038 265.893L4.7557 284.28M131.232 265.893L153.678 248.908M131.232 265.893L106.934 284.28M131.232 265.893H229.36M59.2904 248.908H153.678M59.2904 248.908H-35.0967M59.2904 248.908L83.5542 233.171M153.678 248.908L174.475 233.171M153.678 248.908H248.065M127.1 204.926H211.8M127.1 204.926L146.713 192.205M127.1 204.926H42.3999M127.1 204.926L106.098 218.548M211.8 204.926L228.611 192.205M211.8 204.926L193.799 218.548M211.8 204.926H296.5M146.713 192.205H228.611M146.713 192.205H64.8139M146.713 192.205L165.069 180.299M228.611 192.205L244.345 180.299M228.611 192.205H310.509M198.467 158.636H272.972M198.467 158.636L213.704 148.755M198.467 158.636H123.963M198.467 158.636L182.286 169.132M272.972 158.636L286.032 148.755M272.972 158.636L259.103 169.132M272.972 158.636H347.477M213.704 148.755H286.032M213.704 148.755H141.375M213.704 148.755L228.074 139.433M286.032 148.755L298.35 139.433M286.032 148.755H358.359M254.5 122.293H321M254.5 122.293L266.676 114.396M254.5 122.293H188M254.5 122.293L241.651 130.627M321 122.293L331.437 114.396M321 122.293L309.987 130.627M321 122.293H387.5M266.676 114.396H331.437M266.676 114.396H201.915M266.676 114.396L278.231 106.901M331.437 114.396L341.341 106.901M331.437 114.396H396.197M299.661 93.002H359.709M299.661 93.002L309.614 86.5462M299.661 93.002H239.612M299.661 93.002L289.213 99.779M359.709 93.002L368.241 86.5462M359.709 93.002L350.753 99.779M359.709 93.002H419.757M309.614 86.5462H368.241M309.614 86.5462H250.987M309.614 86.5462L319.107 80.3891M368.241 86.5462L376.377 80.3891M368.241 86.5462H426.867M336.833 68.8913H391.572M336.833 68.8913L345.122 63.5159M336.833 68.8913H282.095M336.833 68.8913L328.171 74.5103M391.572 68.8913L398.675 63.5159M391.572 68.8913L384.146 74.5103M391.572 68.8913H446.31M345.122 63.5159H398.675M345.122 63.5159H291.567M345.122 63.5159L353.059 58.3677M398.675 63.5159L405.479 58.3677M398.675 63.5159H452.23M367.965 48.6989H418.257M367.965 48.6989L374.974 44.1532M367.965 48.6989H317.675M367.965 48.6989L360.666 53.433M418.257 48.6989L417.488 49.2799L412 53.433M418.257 48.6989L424.263 44.1532M418.257 48.6989H468.547M374.974 44.1532H424.263M374.974 44.1532H325.685M374.974 44.1532L381.709 39.785M424.263 44.1532L430.036 39.785M424.263 44.1532H473.553M394.419 31.5409H440.93M394.419 31.5409L400.423 27.647M394.419 31.5409H347.908M394.419 31.5409L388.186 35.5838M440.93 31.5409L446.076 27.647M440.93 31.5409L438.951 33.0393L437.615 34.05L435.588 35.5838M440.93 31.5409H487.442M400.423 27.647H446.076M400.423 27.647H354.769M400.423 27.647L406.208 23.8941M446.076 27.647L447.958 26.2234L449.198 25.2852L451.037 23.8941M446.076 27.647H491.73M417.175 16.7813H460.435M417.175 16.7813L421.092 14.2409L422.375 13.4082M417.175 16.7813H373.914M417.175 16.7813L412.473 19.8309L411.79 20.2745M460.435 16.7813L463.793 14.2409L464.344 13.8234L464.893 13.4082M460.435 16.7813L458.147 18.5122L455.82 20.2745M460.435 16.7813H503.696M422.375 13.4082H464.893M422.375 13.4082L427.4 10.1493M422.375 13.4082H379.857M464.893 13.4082H507.411M464.893 13.4082L469.2 10.1493M370.152 349.833H486.768M370.152 349.833L385.889 326.016M370.152 349.833H253.537M370.152 349.833L352.86 376.004M486.768 349.833L497.26 326.016M486.768 349.833L475.24 376.004M486.768 349.833H603.385M385.889 326.016H497.26M385.889 326.016H274.519M385.889 326.016L400.272 304.25M497.26 326.016L506.848 304.25M497.26 326.016H608.63M425.616 265.893H523.744M425.616 265.893L436.839 248.908M425.616 265.893H327.488M425.616 265.893L413.467 284.28M523.744 265.893L531.226 248.908M523.744 265.893L515.645 284.28M523.744 265.893H621.872M436.839 248.908H531.226M436.839 248.908H342.452M436.839 248.908L447.238 233.171M531.226 248.908L538.158 233.171M531.226 248.908H625.613M465.9 204.926H550.6M465.9 204.926L474.306 192.205M465.9 204.926H381.2M465.9 204.926L456.899 218.548M550.6 204.926L556.204 192.205M550.6 204.926L544.6 218.548M550.6 204.926H635.3M474.306 192.205H556.204M474.306 192.205H392.408M474.306 192.205L482.173 180.299M556.204 192.205L561.448 180.299M556.204 192.205H638.102M496.487 158.636H570.991M496.487 158.636L503.016 148.755M496.487 158.636H421.982M496.487 158.636L489.551 169.132M570.991 158.636L575.344 148.755M570.991 158.636L566.368 169.132M570.991 158.636H645.495M503.016 148.755H575.344M503.016 148.755H430.688M503.016 148.755L509.175 139.433M575.344 148.755L579.45 139.433M575.344 148.755H647.672M520.5 122.293H587.001M520.5 122.293L525.718 114.396M520.5 122.293H454M520.5 122.293L514.994 130.627M587.001 122.293L590.479 114.396M587.001 122.293L583.33 130.627M587.001 122.293H653.5M525.718 114.396H590.479M525.718 114.396H460.958M525.718 114.396L530.671 106.901M590.479 114.396L593.78 106.901M590.479 114.396H655.239M539.854 93.002H599.903M539.854 93.002L544.12 86.5462M539.854 93.002H479.806M539.854 93.002L535.377 99.779M599.903 93.002L602.747 86.5462M599.903 93.002L596.917 99.779M599.903 93.002H659.952M544.12 86.5462H602.747M544.12 86.5462H485.494M544.12 86.5462L545.669 84.2035L548.189 80.3891M602.747 86.5462L605.459 80.3891M602.747 86.5462H661.374M555.786 68.8913H610.524M555.786 68.8913L559.338 63.5159M555.786 68.8913H501.047M555.786 68.8913L553.017 73.0821L552.073 74.5103M610.524 68.8913L611.424 66.8478L612.892 63.5159M610.524 68.8913L608.049 74.5103M610.524 68.8913H665.262M559.338 63.5159L559.771 62.86L562.739 58.3677M559.338 63.5159H612.892M559.338 63.5159H505.784M612.892 63.5159L613.754 61.5594L614.037 60.914L614.321 60.2726L615.159 58.3677M612.892 63.5159H666.446M569.128 48.6989H619.418M569.128 48.6989L570.645 46.4031L571.02 45.8366L571.392 45.2724L571.763 44.7116L572.132 44.1532M569.128 48.6989H518.838M569.128 48.6989L566 53.433M619.418 48.6989L620.928 45.2724L621.176 44.7116L621.421 44.1532M619.418 48.6989L617.334 53.433M619.418 48.6989H669.71M572.132 44.1532H621.421M572.132 44.1532H522.842M572.132 44.1532L573.949 41.4029L574.307 40.8607L575.018 39.785M621.421 44.1532L622.632 41.4029L622.872 40.8607L623.109 40.3214L623.345 39.785M621.421 44.1532H670.711M580.466 31.5409H626.977M580.466 31.5409L583.039 27.647M580.466 31.5409H533.953M580.466 31.5409L579.807 32.5371L578.807 34.05L577.794 35.5838M626.977 31.5409L626.758 32.0379L625.422 35.07L625.196 35.5838M626.977 31.5409L628.693 27.647M626.977 31.5409H673.489M583.039 27.647H628.693M583.039 27.647H537.385M583.039 27.647L585.518 23.8941M628.693 27.647L629.32 26.2234L629.526 25.7532L629.733 25.2852L630.346 23.8941M628.693 27.647H674.346M590.218 16.7813H633.478M590.218 16.7813L591.897 14.2409L592.446 13.4082M590.218 16.7813H546.957M590.218 16.7813L589.361 18.0768L589.074 18.5122L588.784 18.9501L587.909 20.2745M633.478 16.7813L633.667 16.3534L634.041 15.5027L634.414 14.6596L634.964 13.4082M633.478 16.7813L632.716 18.5122L632.524 18.9501L632.135 19.8309L631.94 20.2745M633.478 16.7813H676.739M592.446 13.4082H634.964M592.446 13.4082L594.334 10.5506L594.6 10.1493M592.446 13.4082H549.929M634.964 13.4082L635.147 12.9947L635.328 12.583L635.509 12.173L635.688 11.7648L636.223 10.5506L636.4 10.1493M634.964 13.4082H677.483M836.616 349.833H953.232M836.616 349.833L831.37 326.016M836.616 349.833H720M836.616 349.833L842.38 376.004M953.232 349.833L942.741 326.016M953.232 349.833L964.76 376.004M953.232 349.833H1069.85M831.37 326.016H942.741M831.37 326.016H720M831.37 326.016C831.37 326.016 828.448 312.75 826.576 304.25M942.741 326.016L933.152 304.25M942.741 326.016H1054.11M818.128 265.893H916.256M818.128 265.893L814.387 248.908M818.128 265.893H720M818.128 265.893L822.178 284.28M916.256 265.893L908.774 248.908M916.256 265.893L924.355 284.28M916.256 265.893H1014.38M814.387 248.908H908.774M814.387 248.908H720M814.387 248.908L810.921 233.171M908.774 248.908L901.842 233.171M908.774 248.908H1003.16M804.7 204.926H889.4M804.7 204.926L801.898 192.205M804.7 204.926H720M804.7 204.926L807.701 218.548M889.4 204.926L883.796 192.205M889.4 204.926L895.4 218.548M889.4 204.926H974.1M801.898 192.205H883.796M801.898 192.205H720M801.898 192.205L799.276 180.299M883.796 192.205L878.552 180.299M883.796 192.205H965.695M794.505 158.636H869.01M794.505 158.636L792.328 148.755M794.505 158.636H720M794.505 158.636L796.816 169.132M869.01 158.636L864.657 148.755M869.01 158.636L873.633 169.132M869.01 158.636H943.514M792.328 148.755H864.657M792.328 148.755H720M792.328 148.755L790.275 139.433M864.657 148.755L860.55 139.433M864.657 148.755H936.984M786.5 122.293H853M786.5 122.293L784.761 114.396M786.5 122.293H720M786.5 122.293L788.336 130.627M853 122.293L849.522 114.396M853 122.293L856.671 130.627M853 122.293H919.5M784.761 114.396H849.522M784.761 114.396H720M784.761 114.396L783.109 106.901M849.522 114.396L846.22 106.901M849.522 114.396H914.282M780.048 93.002H840.097M780.048 93.002L778.627 86.5462M780.048 93.002H720M780.048 93.002L781.541 99.779M840.097 93.002L837.253 86.5462M840.097 93.002L843.083 99.779M840.097 93.002H900.146M778.627 86.5462H837.253M778.627 86.5462H720M778.627 86.5462L777.271 80.3891M837.253 86.5462L834.541 80.3891M837.253 86.5462H895.88M774.738 68.8913H829.476M774.738 68.8913L773.554 63.5159M774.738 68.8913H720M774.738 68.8913L775.976 74.5103M829.476 68.8913L827.398 64.1752L827.108 63.5159M829.476 68.8913L831.951 74.5103M829.476 68.8913H884.214M773.554 63.5159L773.41 62.86L772.42 58.3677M773.554 63.5159H827.108M773.554 63.5159H720M827.108 63.5159L826.246 61.5594L825.963 60.914L825.679 60.2726L824.841 58.3677M827.108 63.5159H880.662M770.291 48.6989H820.582M770.291 48.6989L769.289 44.1532M770.291 48.6989H720M770.291 48.6989L770.676 50.4512L770.807 51.0416L770.937 51.6348L771.2 52.8305L771.334 53.433M820.582 48.6989L819.072 45.2724L818.578 44.1532M820.582 48.6989L822.666 53.433M820.582 48.6989H870.872M769.289 44.1532H818.578M769.289 44.1532H720M769.289 44.1532L768.327 39.785M818.578 44.1532L817.368 41.4029L817.128 40.8607L816.892 40.3214L816.655 39.785M818.578 44.1532H867.869M766.512 31.5409H813.023M766.512 31.5409L765.654 27.647M766.512 31.5409H720M766.512 31.5409L767.402 35.5838M813.023 31.5409L813.242 32.0379L814.578 35.07L814.804 35.5838M813.023 31.5409L811.308 27.647M813.023 31.5409H859.534M765.654 27.647H811.308M765.654 27.647H720M765.654 27.647L764.827 23.8941M811.308 27.647L810.68 26.2234L810.474 25.7532L810.267 25.2852L809.654 23.8941M811.308 27.647H856.961M763.261 16.7813H806.522M763.261 16.7813L762.518 13.4082M763.261 16.7813H720M763.261 16.7813L764.03 20.2745M806.522 16.7813L806.333 16.3534L805.958 15.5027L805.772 15.08L805.402 14.2409L805.219 13.8234L805.035 13.4082M806.522 16.7813L807.285 18.5122L807.477 18.9501L807.865 19.8309L808.06 20.2745M806.522 16.7813H849.782M762.518 13.4082L762.427 12.9947L762.336 12.583L762.246 12.173L761.8 10.1493M762.518 13.4082H805.035M762.518 13.4082H720M805.035 13.4082H847.554M805.035 13.4082L804.672 12.583L804.491 12.173L804.312 11.7648L803.777 10.5506L803.6 10.1493M1303.08 349.833H1419.7M1303.08 349.833L1276.85 326.016M1303.08 349.833H1186.46M1303.08 349.833L1331.9 376.004M1419.7 349.833L1388.22 326.016M1419.7 349.833L1454.28 376.004M1419.7 349.833H1536.31M1276.85 326.016H1388.22M1276.85 326.016H1165.48M1276.85 326.016L1252.88 304.25M1388.22 326.016L1359.46 304.25M1388.22 326.016H1499.59M1210.64 265.893H1308.77M1210.64 265.893L1191.94 248.908M1210.64 265.893H1112.51M1210.64 265.893L1230.89 284.28M1308.77 265.893L1286.32 248.908M1308.77 265.893L1333.07 284.28M1308.77 265.893H1406.9M1191.94 248.908H1286.32M1191.94 248.908H1097.55M1191.94 248.908L1174.6 233.171M1286.32 248.908L1265.53 233.171M1286.32 248.908H1380.71M1143.5 204.926H1228.2M1143.5 204.926L1129.49 192.205M1143.5 204.926H1058.8M1143.5 204.926L1158.5 218.548M1228.2 204.926L1211.39 192.205M1228.2 204.926L1246.2 218.548M1228.2 204.926H1312.9M1129.49 192.205H1211.39M1129.49 192.205H1047.59M1129.49 192.205L1116.38 180.299M1211.39 192.205L1195.66 180.299M1211.39 192.205H1293.29M1092.52 158.636H1167.03M1092.52 158.636L1081.64 148.755M1092.52 158.636H1018.02M1092.52 158.636L1104.08 169.132M1167.03 158.636L1153.97 148.755M1167.03 158.636L1180.9 169.132M1167.03 158.636H1241.53M1081.64 148.755H1153.97M1081.64 148.755H1009.31M1081.64 148.755L1071.38 139.433M1153.97 148.755L1141.65 139.433M1153.97 148.755H1226.3M1052.5 122.293H1119M1052.5 122.293L1043.8 114.396M1052.5 122.293H986M1052.5 122.293L1061.68 130.627M1119 122.293L1108.56 114.396M1119 122.293L1130.01 130.627M1119 122.293H1185.5M1043.8 114.396H1108.56M1043.8 114.396H979.042M1043.8 114.396L1035.55 106.901M1108.56 114.396L1098.66 106.901M1108.56 114.396H1173.32M1020.24 93.002H1080.29M1020.24 93.002L1013.13 86.5462M1020.24 93.002H960.194M1020.24 93.002L1027.71 99.779M1080.29 93.002L1071.76 86.5462M1080.29 93.002L1089.25 99.779M1080.29 93.002H1140.34M1013.13 86.5462H1071.76M1013.13 86.5462H954.507M1013.13 86.5462L1006.35 80.3891M1071.76 86.5462L1063.62 80.3891M1071.76 86.5462H1130.39M993.691 68.8913L994.449 69.5802L995.212 70.2726L999.878 74.5103M993.691 68.8913H1048.43M993.691 68.8913L987.77 63.5159M993.691 68.8913H938.953M1048.43 68.8913L1041.32 63.5159M1048.43 68.8913L1055.85 74.5103M1048.43 68.8913H1103.17M987.77 63.5159H1041.32M987.77 63.5159H934.217M987.77 63.5159L982.101 58.3677M1041.32 63.5159L1034.52 58.3677M1041.32 63.5159H1094.88M971.453 48.6989H1021.74M971.453 48.6989L966.447 44.1532M971.453 48.6989H921.163M971.453 48.6989L976.667 53.433M1021.74 48.6989L1017.96 45.8366L1015.74 44.1532M1021.74 48.6989L1028 53.433M1021.74 48.6989H1072.03M966.447 44.1532H1015.74M966.447 44.1532H917.158M966.447 44.1532L962.228 40.3214L961.637 39.785M1015.74 44.1532L1009.96 39.785M1015.74 44.1532H1065.03M952.558 31.5409H999.07M952.558 31.5409L951.471 30.5534L948.27 27.647M952.558 31.5409H906.047M952.558 31.5409L953.655 32.5371L955.882 34.5586L957.01 35.5838M999.07 31.5409L993.924 27.647M999.07 31.5409L1001.05 33.0393L1002.38 34.05L1004.41 35.5838M999.07 31.5409H1045.58M948.27 27.647H993.924M948.27 27.647H902.615M948.27 27.647L945.156 24.819L944.136 23.8941M993.924 27.647L992.042 26.2234L990.802 25.2852L988.964 23.8941M993.924 27.647H1039.58M936.304 16.7813H979.565M936.304 16.7813L933.967 14.6596L932.589 13.4082M936.304 16.7813H893.043M936.304 16.7813L940.151 20.2745M979.565 16.7813L976.207 14.2409L975.656 13.8234L975.107 13.4082M979.565 16.7813L981.853 18.5122L984.181 20.2745M979.565 16.7813H1022.83M932.589 13.4082H975.107M932.589 13.4082L930.78 11.7648L929.886 10.9536L929.442 10.5506L929 10.1493M932.589 13.4082H890.071M975.107 13.4082H1017.63M975.107 13.4082L970.8 10.1493M1569.48 248.908H1475.1M1569.48 248.908L1538.29 233.171M1569.48 248.908H1597.76M1569.48 248.908L1597.76 263.175M1482.3 204.926H1567M1482.3 204.926L1457.08 192.205M1482.3 204.926H1397.6M1482.3 204.926L1509.3 218.548M1567 204.926L1538.98 192.205M1567 204.926L1597 218.548M1567 204.926H1597.76M1457.08 192.205H1538.98M1457.08 192.205H1375.19M1457.08 192.205L1433.48 180.299M1538.98 192.205L1512.76 180.299M1538.98 192.205H1597.76M1390.54 158.636H1465.05M1390.54 158.636L1370.95 148.755M1390.54 158.636H1316.04M1390.54 158.636L1411.35 169.132M1465.05 158.636L1443.28 148.755M1465.05 158.636L1488.16 169.132M1465.05 158.636H1539.55M1370.95 148.755H1443.28M1370.95 148.755H1298.63M1370.95 148.755L1352.48 139.433M1443.28 148.755L1422.75 139.433M1443.28 148.755H1515.61M1318.5 122.293H1385M1318.5 122.293L1302.85 114.396M1318.5 122.293H1252M1318.5 122.293L1335.02 130.627M1385 122.293L1367.61 114.396M1385 122.293L1403.36 130.627M1385 122.293H1451.5M1302.85 114.396H1367.61M1302.85 114.396H1238.08M1302.85 114.396L1287.99 106.901M1367.61 114.396L1351.1 106.901M1367.61 114.396H1432.37M1260.44 93.002H1320.49M1260.44 93.002L1247.64 86.5462M1260.44 93.002H1200.39M1260.44 93.002L1273.87 99.779M1320.49 93.002L1306.27 86.5462M1320.49 93.002L1335.41 99.779M1320.49 93.002H1380.53M1247.64 86.5462H1306.27M1247.64 86.5462H1189.01M1247.64 86.5462L1235.43 80.3891M1306.27 86.5462L1292.7 80.3891M1306.27 86.5462H1364.89M1212.64 68.8913H1267.38M1212.64 68.8913L1201.99 63.5159M1212.64 68.8913H1157.9M1212.64 68.8913L1223.78 74.5103M1267.38 68.8913L1255.54 63.5159M1267.38 68.8913L1279.76 74.5103M1267.38 68.8913H1322.12M1201.99 63.5159H1255.54M1201.99 63.5159H1148.43M1201.99 63.5159L1191.78 58.3677M1255.54 63.5159L1244.2 58.3677M1255.54 63.5159H1309.1M1172.62 48.6989H1222.91M1172.62 48.6989L1163.6 44.1532M1172.62 48.6989H1122.33M1172.62 48.6989L1182 53.433M1222.91 48.6989L1212.89 44.1532M1222.91 48.6989L1233.33 53.433M1222.91 48.6989H1273.2M1163.6 44.1532H1212.89M1163.6 44.1532H1114.32M1163.6 44.1532L1154.95 39.785M1212.89 44.1532L1203.27 39.785M1212.89 44.1532H1262.18M1138.6 31.5409H1185.12M1138.6 31.5409L1130.89 27.647M1138.6 31.5409H1092.09M1138.6 31.5409L1140.58 32.5371L1141.57 33.0393L1146.62 35.5838M1185.12 31.5409L1176.54 27.647M1185.12 31.5409L1194.02 35.5838M1185.12 31.5409H1231.63M1130.89 27.647H1176.54M1130.89 27.647H1085.23M1130.89 27.647L1123.45 23.8941M1176.54 27.647L1168.27 23.8941M1176.54 27.647H1222.19M1109.35 16.7813H1152.61M1109.35 16.7813L1102.66 13.4082M1109.35 16.7813H1066.09M1109.35 16.7813L1116.27 20.2745M1152.61 16.7813L1147.01 14.2409L1146.09 13.8234L1145.18 13.4082M1152.61 16.7813L1160.3 20.2745M1152.61 16.7813H1195.87M1102.66 13.4082H1145.18M1102.66 13.4082L1097 10.5506L1096.2 10.1493M1102.66 13.4082H1060.14M1145.18 13.4082H1187.7M1145.18 13.4082L1138 10.1493M1584.5 122.293L1561.89 114.396M1584.5 122.293H1518M1584.5 122.293L1597.76 126.926M1584.5 122.293H1597.76M1561.89 114.396H1497.13M1561.89 114.396L1540.43 106.901M1561.89 114.396H1597.76M1500.63 93.002H1560.68M1500.63 93.002L1482.15 86.5462M1500.63 93.002H1440.58M1500.63 93.002L1520.03 99.779M1560.68 93.002L1540.77 86.5462M1560.68 93.002L1581.58 99.779M1560.68 93.002H1597.76M1482.15 86.5462H1540.77M1482.15 86.5462H1423.52M1482.15 86.5462L1464.52 80.3891M1540.77 86.5462L1521.79 80.3891M1540.77 86.5462H1597.76M1431.6 68.8913H1486.33M1431.6 68.8913L1416.2 63.5159M1431.6 68.8913H1376.86M1431.6 68.8913L1447.68 74.5103M1486.33 68.8913L1469.76 63.5159M1486.33 68.8913L1503.66 74.5103M1486.33 68.8913H1541.07M1416.2 63.5159H1469.76M1416.2 63.5159H1362.65M1416.2 63.5159L1401.46 58.3677M1469.76 63.5159L1453.88 58.3677M1469.76 63.5159H1523.31M1373.78 48.6989H1424.07M1373.78 48.6989L1360.76 44.1532M1373.78 48.6989H1323.49M1373.78 48.6989L1387.33 53.433M1424.07 48.6989L1410.05 44.1532M1424.07 48.6989L1438.67 53.433M1424.07 48.6989H1474.36M1360.76 44.1532H1410.05M1360.76 44.1532H1311.47M1360.76 44.1532L1348.26 39.785M1410.05 44.1532L1396.58 39.785M1410.05 44.1532H1459.34M1324.65 31.5409H1371.16M1324.65 31.5409L1313.5 27.647M1324.65 31.5409H1278.14M1324.65 31.5409L1336.23 35.5838M1371.16 31.5409L1359.16 27.647M1371.16 31.5409L1383.63 35.5838M1371.16 31.5409H1417.67M1313.5 27.647H1359.16M1313.5 27.647H1267.85M1313.5 27.647L1302.76 23.8941M1359.16 27.647L1347.58 23.8941M1359.16 27.647H1404.81M1282.39 16.7813H1325.65M1282.39 16.7813L1272.73 13.4082M1282.39 16.7813H1239.13M1282.39 16.7813L1292.39 20.2745M1325.65 16.7813L1315.25 13.4082M1325.65 16.7813L1336.42 20.2745M1325.65 16.7813H1368.91M1272.73 13.4082H1315.25M1272.73 13.4082L1263.4 10.1493M1272.73 13.4082H1230.21M1315.25 13.4082H1357.77M1315.25 13.4082L1305.2 10.1493M1574.94 48.6989L1557.92 44.1532M1574.94 48.6989H1524.65M1574.94 48.6989L1592.67 53.433M1574.94 48.6989H1597.76M1557.92 44.1532H1508.63M1557.92 44.1532L1541.56 39.785M1557.92 44.1532H1597.76M1510.7 31.5409H1557.21M1510.7 31.5409L1496.12 27.647M1510.7 31.5409H1464.19M1510.7 31.5409L1525.84 35.5838M1557.21 31.5409L1541.77 27.647M1557.21 31.5409L1573.24 35.5838M1557.21 31.5409H1597.76M1496.12 27.647H1541.77M1496.12 27.647H1450.46M1496.12 27.647L1482.06 23.8941M1541.77 27.647L1526.89 23.8941M1541.77 27.647H1587.42M1455.43 16.7813H1498.69M1455.43 16.7813L1442.8 13.4082M1455.43 16.7813H1412.17M1455.43 16.7813L1468.51 20.2745M1498.69 16.7813L1485.32 13.4082M1498.69 16.7813L1512.54 20.2745M1498.69 16.7813H1541.96M1442.8 13.4082H1485.32M1442.8 13.4082L1430.6 10.1493M1442.8 13.4082H1400.29M1485.32 13.4082H1527.84M1485.32 13.4082L1472.4 10.1493M1512.54 20.2745L1526.89 23.8941M1512.54 20.2745H1556.57M1512.54 20.2745H1468.51M1541.96 16.7813L1527.84 13.4082M1541.96 16.7813L1556.57 20.2745M1541.96 16.7813H1585.22M1527.84 13.4082H1570.36M1527.84 13.4082L1514.2 10.1493M1472.4 10.1493H1430.6M1472.4 10.1493H1514.2M1472.4 10.1493L1459.91 6.99823M1556.57 20.2745L1571.72 23.8941M1556.57 20.2745H1597.76M1585.22 16.7813L1570.36 13.4082M1585.22 16.7813L1597.76 19.63M1585.22 16.7813H1597.76M1570.36 13.4082L1556 10.1493M1570.36 13.4082H1597.76M1514.2 10.1493H1556M1514.2 10.1493L1501.01 6.99823M1556 10.1493L1542.12 6.99823M1556 10.1493H1597.76M1526.89 23.8941H1571.72M1526.89 23.8941H1482.06M1587.42 27.647L1571.72 23.8941M1587.42 27.647L1597.76 30.1174M1587.42 27.647H1597.76M1571.72 23.8941H1597.76M1482.06 23.8941H1437.24M1482.06 23.8941L1468.51 20.2745M1468.51 20.2745H1424.48M1573.24 35.5838L1589.89 39.785M1573.24 35.5838H1525.84M1573.24 35.5838H1597.76M1597.91 31.5409H1597.76M1589.89 39.785H1541.56M1589.89 39.785L1597.76 41.7705M1589.89 39.785H1597.76M1541.56 39.785H1493.24M1541.56 39.785L1525.84 35.5838M1525.84 35.5838H1478.43M1336.42 20.2745L1347.58 23.8941M1336.42 20.2745H1380.45M1336.42 20.2745H1292.39M1368.91 16.7813L1357.77 13.4082M1368.91 16.7813L1380.45 20.2745M1368.91 16.7813H1412.17M1357.77 13.4082H1400.29M1357.77 13.4082L1347 10.1493M1305.2 10.1493H1347M1305.2 10.1493L1295.48 6.99823M1305.2 10.1493H1263.4M1380.45 20.2745L1392.41 23.8941M1380.45 20.2745H1424.48M1412.17 16.7813L1400.29 13.4082M1412.17 16.7813L1424.48 20.2745M1400.29 13.4082L1388.8 10.1493M1347 10.1493H1388.8M1347 10.1493L1336.59 6.99823M1424.48 20.2745L1437.24 23.8941M1430.6 10.1493H1388.8M1430.6 10.1493L1418.8 6.99823M1388.8 10.1493L1377.7 6.99823M1347.58 23.8941H1392.41M1347.58 23.8941H1302.76M1404.81 27.647L1392.41 23.8941M1404.81 27.647L1417.67 31.5409M1404.81 27.647H1450.46M1392.41 23.8941H1437.24M1302.76 23.8941H1257.93M1302.76 23.8941L1292.39 20.2745M1437.24 23.8941L1450.46 27.647M1292.39 20.2745H1248.36M1417.67 31.5409L1431.03 35.5838M1417.67 31.5409H1464.19M1450.46 27.647L1464.19 31.5409M1464.19 31.5409L1478.43 35.5838M1383.63 35.5838L1396.58 39.785M1383.63 35.5838H1431.03M1383.63 35.5838H1336.23M1431.03 35.5838L1444.91 39.785M1431.03 35.5838H1478.43M1478.43 35.5838L1493.24 39.785M1396.58 39.785H1444.91M1396.58 39.785H1348.26M1459.34 44.1532L1444.91 39.785M1459.34 44.1532L1474.36 48.6989M1459.34 44.1532H1508.63M1444.91 39.785H1493.24M1348.26 39.785H1299.93M1348.26 39.785L1336.23 35.5838M1493.24 39.785L1508.63 44.1532M1336.23 35.5838H1288.83M1474.36 48.6989L1490 53.433M1474.36 48.6989H1524.65M1508.63 44.1532L1524.65 48.6989M1524.65 48.6989L1541.33 53.433M1438.67 53.433L1453.88 58.3677M1438.67 53.433H1490M1438.67 53.433H1387.33M1490 53.433L1506.3 58.3677M1490 53.433H1541.33M1541.33 53.433L1558.72 58.3677M1541.33 53.433H1592.67M1592.67 53.433H1597.76M1592.67 53.433L1597.76 54.7941M1453.88 58.3677H1506.3M1453.88 58.3677H1401.46M1523.31 63.5159L1506.3 58.3677M1523.31 63.5159L1541.07 68.8913M1523.31 63.5159H1576.87M1506.3 58.3677H1558.72M1401.46 58.3677H1349.04M1401.46 58.3677L1387.33 53.433M1558.72 58.3677L1576.87 63.5159M1558.72 58.3677H1597.76M1387.33 53.433H1336M1541.07 68.8913L1559.63 74.5103M1541.07 68.8913H1595.81M1576.87 63.5159L1595.81 68.8913M1576.87 63.5159H1597.76M1598.04 58.3677H1597.76M1595.81 68.8913L1597.76 69.4461M1595.81 68.8913H1597.76M1503.66 74.5103L1521.79 80.3891M1503.66 74.5103H1559.63M1503.66 74.5103H1447.68M1559.63 74.5103L1579.06 80.3891M1559.63 74.5103H1597.76M1598.24 69.5802L1597.76 69.4461M1521.79 80.3891H1579.06M1521.79 80.3891H1464.52M1579.06 80.3891H1597.76M1579.06 80.3891L1597.76 86.0514M1464.52 80.3891H1407.25M1464.52 80.3891L1447.68 74.5103M1447.68 74.5103H1391.71M1581.58 99.779H1520.03M1581.58 99.779L1597.76 105.029M1581.58 99.779H1597.76M1598.21 93.002H1597.76M1520.03 99.779H1458.49M1520.03 99.779L1540.43 106.901M1597.94 105.087L1597.76 105.029M1160.3 20.2745L1168.27 23.8941M1160.3 20.2745H1204.33M1160.3 20.2745H1116.27M1195.87 16.7813L1187.7 13.4082M1195.87 16.7813L1204.33 20.2745M1195.87 16.7813H1239.13M1187.7 13.4082H1230.21M1187.7 13.4082L1179.8 10.1493M1138 10.1493H1179.8M1138 10.1493L1135.37 8.95532L1131.06 6.99823M1138 10.1493H1096.2M1204.33 20.2745L1213.1 23.8941M1204.33 20.2745H1248.36M1239.13 16.7813L1230.21 13.4082M1239.13 16.7813L1248.36 20.2745M1230.21 13.4082L1221.6 10.1493M1179.8 10.1493H1221.6M1179.8 10.1493L1172.17 6.99823M1248.36 20.2745L1257.93 23.8941M1263.4 10.1493L1254.38 6.99823M1263.4 10.1493H1221.6M1221.6 10.1493L1220.54 9.74916L1218.44 8.95532L1213.27 6.99823M1168.27 23.8941H1213.1M1168.27 23.8941H1123.45M1222.19 27.647L1213.1 23.8941M1222.19 27.647L1231.63 31.5409M1222.19 27.647H1267.85M1213.1 23.8941H1257.93M1123.45 23.8941H1078.62M1123.45 23.8941L1116.27 20.2745M1257.93 23.8941L1267.85 27.647M1116.27 20.2745H1072.24M1231.63 31.5409L1241.42 35.5838M1231.63 31.5409H1278.14M1267.85 27.647L1269.11 28.1254L1278.14 31.5409M1278.14 31.5409L1288.83 35.5838M1194.02 35.5838L1195.16 36.1005L1203.27 39.785M1194.02 35.5838H1241.42M1194.02 35.5838H1146.62M1241.42 35.5838L1251.6 39.785M1241.42 35.5838H1288.83M1288.83 35.5838L1299.93 39.785M1203.27 39.785H1251.6M1203.27 39.785H1154.95M1262.18 44.1532L1251.6 39.785M1262.18 44.1532L1273.2 48.6989M1262.18 44.1532H1311.47M1251.6 39.785H1299.93M1154.95 39.785H1106.62M1154.95 39.785L1146.62 35.5838M1299.93 39.785L1311.47 44.1532M1146.62 35.5838H1099.22M1273.2 48.6989L1284.67 53.433M1273.2 48.6989H1323.49M1311.47 44.1532L1323.49 48.6989M1323.49 48.6989L1336 53.433M1233.33 53.433L1244.2 58.3677M1233.33 53.433H1284.67M1233.33 53.433H1182M1284.67 53.433L1296.62 58.3677M1284.67 53.433H1336M1336 53.433L1349.04 58.3677M1244.2 58.3677H1296.62M1244.2 58.3677H1191.78M1309.1 63.5159L1296.62 58.3677M1309.1 63.5159L1322.12 68.8913M1309.1 63.5159H1362.65M1296.62 58.3677H1349.04M1191.78 58.3677H1139.36M1191.78 58.3677L1182 53.433M1349.04 58.3677L1362.65 63.5159M1182 53.433H1130.67M1322.12 68.8913L1335.73 74.5103M1322.12 68.8913H1376.86M1362.65 63.5159L1376.86 68.8913M1376.86 68.8913L1391.71 74.5103M1279.76 74.5103L1292.7 80.3891M1279.76 74.5103H1335.73M1279.76 74.5103H1223.78M1335.73 74.5103L1349.98 80.3891M1335.73 74.5103H1391.71M1391.71 74.5103L1407.25 80.3891M1292.7 80.3891H1349.98M1292.7 80.3891H1235.43M1364.89 86.5462L1349.98 80.3891M1364.89 86.5462L1380.53 93.002M1364.89 86.5462H1423.52M1349.98 80.3891H1407.25M1235.43 80.3891H1178.16M1235.43 80.3891L1223.78 74.5103M1407.25 80.3891L1423.52 86.5462M1223.78 74.5103H1167.81M1380.53 93.002L1396.95 99.779M1380.53 93.002H1440.58M1423.52 86.5462L1440.58 93.002M1440.58 93.002L1458.49 99.779M1335.41 99.779L1351.1 106.901M1335.41 99.779H1396.95M1335.41 99.779H1273.87M1396.95 99.779L1414.21 106.901M1396.95 99.779H1458.49M1458.49 99.779L1477.32 106.901M1351.1 106.901H1414.21M1351.1 106.901H1287.99M1432.37 114.396L1414.21 106.901M1432.37 114.396L1451.5 122.293M1432.37 114.396H1497.13M1414.21 106.901H1477.32M1287.99 106.901H1224.88M1287.99 106.901L1273.87 99.779M1477.32 106.901L1497.13 114.396M1477.32 106.901H1540.43M1273.87 99.779H1212.33M1451.5 122.293L1471.69 130.627M1451.5 122.293H1518M1497.13 114.396L1518 122.293M1540.43 106.901H1597.76M1518 122.293L1540.03 130.627M1403.36 130.627L1422.75 139.433M1403.36 130.627H1471.69M1403.36 130.627H1335.02M1471.69 130.627L1493.03 139.433M1471.69 130.627H1540.03M1540.03 130.627L1563.3 139.433M1540.03 130.627H1597.76M1422.75 139.433H1493.03M1422.75 139.433H1352.48M1515.61 148.755L1493.03 139.433M1515.61 148.755L1539.55 158.636M1515.61 148.755H1587.94M1493.03 139.433H1563.3M1352.48 139.433H1282.2M1352.48 139.433L1335.02 130.627M1563.3 139.433L1587.94 148.755M1563.3 139.433H1597.76M1335.02 130.627H1266.68M1539.55 158.636L1564.98 169.132M1539.55 158.636H1597.76M1587.94 148.755H1597.76M1587.94 148.755L1597.76 152.473M1488.16 169.132L1512.76 180.299M1488.16 169.132H1564.98M1488.16 169.132H1411.35M1564.98 169.132L1592.03 180.299M1564.98 169.132H1597.76M1512.76 180.299H1592.03M1512.76 180.299H1433.48M1592.03 180.299L1597.76 182.664M1592.03 180.299H1597.76M1433.48 180.299H1354.21M1433.48 180.299L1411.35 169.132M1411.35 169.132H1334.53M1597 218.548H1509.3M1597 218.548H1597.76M1597 218.548L1597.76 218.894M1509.3 218.548H1421.6M1509.3 218.548L1538.29 233.171M984.181 20.2745L985.954 21.6163L986.55 22.0681L988.964 23.8941M984.181 20.2745H1028.21M984.181 20.2745H940.151M1022.83 16.7813L1018.91 14.2409L1017.63 13.4082M1022.83 16.7813L1027.53 19.8309L1028.21 20.2745M1022.83 16.7813H1066.09M1017.63 13.4082H1060.14M1017.63 13.4082L1012.6 10.1493M970.8 10.1493H1012.6M970.8 10.1493L969.222 8.95532L966.636 6.99823M970.8 10.1493H929M1028.21 20.2745L1029.59 21.1669L1033.79 23.8941M1028.21 20.2745H1072.24M1066.09 16.7813L1060.14 13.4082M1066.09 16.7813L1072.24 20.2745M1060.14 13.4082L1055.82 10.9536L1054.4 10.1493M1012.6 10.1493H1054.4M1012.6 10.1493L1007.74 6.99823M1072.24 20.2745L1078.62 23.8941M1096.2 10.1493L1095.41 9.74916L1089.95 6.99823M1096.2 10.1493H1054.4M1054.4 10.1493L1052.3 8.95532L1048.85 6.99823M988.964 23.8941H1033.79M988.964 23.8941H944.136M1039.58 27.647L1033.79 23.8941M1039.58 27.647L1045.58 31.5409M1039.58 27.647H1085.23M1033.79 23.8941H1078.62M944.136 23.8941H899.309M944.136 23.8941L940.151 20.2745M1078.62 23.8941L1085.23 27.647M940.151 20.2745H896.121M1045.58 31.5409L1049.45 34.05L1050.23 34.5586L1051.81 35.5838M1045.58 31.5409H1092.09M1085.23 27.647L1092.09 31.5409M1092.09 31.5409L1099.22 35.5838M1004.41 35.5838L1009.96 39.785M1004.41 35.5838H1051.81M1004.41 35.5838H957.01M1051.81 35.5838L1058.29 39.785M1051.81 35.5838H1099.22M1099.22 35.5838L1106.62 39.785M1009.96 39.785H1058.29M1009.96 39.785H961.637M1065.03 44.1532L1060.79 41.4029L1059.95 40.8607L1058.29 39.785M1065.03 44.1532L1072.03 48.6989M1065.03 44.1532H1114.32M1058.29 39.785H1106.62M961.637 39.785H913.309M961.637 39.785L957.01 35.5838M1106.62 39.785L1114.32 44.1532M957.01 35.5838H909.608M1072.03 48.6989L1079.33 53.433M1072.03 48.6989H1122.33M1114.32 44.1532L1122.33 48.6989M1122.33 48.6989L1130.67 53.433M1028 53.433L1031.23 55.8742L1032.04 56.493L1034.52 58.3677M1028 53.433H1079.33M1028 53.433H976.667M1079.33 53.433L1086.94 58.3677M1079.33 53.433H1130.67M1130.67 53.433L1139.36 58.3677M1034.52 58.3677H1086.94M1034.52 58.3677H982.101M1094.88 63.5159L1086.94 58.3677M1094.88 63.5159L1103.17 68.8913M1094.88 63.5159H1148.43M1086.94 58.3677H1139.36M982.101 58.3677H929.681M982.101 58.3677L980.721 57.1146L976.667 53.433M1139.36 58.3677L1148.43 63.5159M976.667 53.433H925.334M1103.17 68.8913L1111.83 74.5103M1103.17 68.8913H1157.9M1148.43 63.5159L1157.9 68.8913M1157.9 68.8913L1167.81 74.5103M1055.85 74.5103L1063.62 80.3891M1055.85 74.5103H1111.83M1055.85 74.5103H999.878M1111.83 74.5103L1120.89 80.3891M1111.83 74.5103H1167.81M1167.81 74.5103L1178.16 80.3891M1063.62 80.3891H1120.89M1063.62 80.3891H1006.35M1130.39 86.5462L1120.89 80.3891M1130.39 86.5462L1140.34 93.002M1130.39 86.5462H1189.01M1120.89 80.3891H1178.16M1006.35 80.3891H949.082M1006.35 80.3891L999.878 74.5103M1178.16 80.3891L1189.01 86.5462M999.878 74.5103H943.903M1140.34 93.002L1150.79 99.779M1140.34 93.002H1200.39M1189.01 86.5462L1200.39 93.002M1200.39 93.002L1212.33 99.779M1089.25 99.779L1098.66 106.901M1089.25 99.779H1150.79M1089.25 99.779H1027.71M1150.79 99.779L1161.77 106.901M1150.79 99.779H1212.33M1212.33 99.779L1224.88 106.901M1098.66 106.901H1161.77M1098.66 106.901H1035.55M1173.32 114.396L1161.77 106.901M1173.32 114.396L1185.5 122.293M1173.32 114.396H1238.08M1161.77 106.901H1224.88M1035.55 106.901H972.44M1035.55 106.901L1027.71 99.779M1224.88 106.901L1238.08 114.396M1027.71 99.779H966.165M1185.5 122.293L1198.35 130.627M1185.5 122.293H1252M1238.08 114.396L1252 122.293M1252 122.293L1266.68 130.627M1130.01 130.627L1141.65 139.433M1130.01 130.627H1198.35M1130.01 130.627H1061.68M1198.35 130.627L1211.93 139.433M1198.35 130.627H1266.68M1266.68 130.627L1282.2 139.433M1141.65 139.433H1211.93M1141.65 139.433H1071.38M1226.3 148.755L1211.93 139.433M1226.3 148.755L1241.53 158.636M1226.3 148.755H1298.63M1211.93 139.433H1282.2M1071.38 139.433H1001.1M1071.38 139.433L1061.68 130.627M1282.2 139.433L1298.63 148.755M1061.68 130.627H993.342M1241.53 158.636L1257.71 169.132M1241.53 158.636H1316.04M1298.63 148.755L1316.04 158.636M1316.04 158.636L1334.53 169.132M1180.9 169.132L1195.66 180.299M1180.9 169.132H1257.71M1180.9 169.132H1104.08M1257.71 169.132L1274.93 180.299M1257.71 169.132H1334.53M1334.53 169.132L1354.21 180.299M1195.66 180.299H1274.93M1195.66 180.299H1116.38M1293.29 192.205L1274.93 180.299M1293.29 192.205L1312.9 204.926M1293.29 192.205H1375.19M1274.93 180.299H1354.21M1116.38 180.299H1037.1M1116.38 180.299L1104.08 169.132M1354.21 180.299L1375.19 192.205M1104.08 169.132H1027.27M1312.9 204.926L1333.9 218.548M1312.9 204.926H1397.6M1375.19 192.205L1397.6 204.926M1397.6 204.926L1421.6 218.548M1246.2 218.548L1265.53 233.171M1246.2 218.548H1333.9M1246.2 218.548H1158.5M1333.9 218.548L1356.45 233.171M1333.9 218.548H1421.6M1421.6 218.548L1447.37 233.171M1265.53 233.171H1356.45M1265.53 233.171H1174.6M1380.71 248.908L1356.45 233.171M1380.71 248.908L1406.9 265.893M1380.71 248.908H1475.1M1356.45 233.171H1447.37M1174.6 233.171H1083.68M1174.6 233.171L1158.5 218.548M1447.37 233.171L1475.1 248.908M1447.37 233.171H1538.29M1158.5 218.548H1070.8M1406.9 265.893L1435.24 284.28M1406.9 265.893H1505.02M1475.1 248.908L1505.02 265.893M1538.29 233.171H1597.76M1505.02 265.893L1537.42 284.28M1505.02 265.893H1597.76M1333.07 284.28L1359.46 304.25M1333.07 284.28H1435.24M1333.07 284.28H1230.89M1435.24 284.28L1466.03 304.25M1435.24 284.28H1537.42M1537.42 284.28L1572.61 304.25M1537.42 284.28H1597.76M1359.46 304.25H1466.03M1359.46 304.25H1252.88M1499.59 326.016L1466.03 304.25M1499.59 326.016L1536.31 349.833M1499.59 326.016H1597.76M1466.03 304.25H1572.61M1252.88 304.25H1146.3M1252.88 304.25L1230.89 284.28M1572.61 304.25H1597.76M1572.61 304.25L1597.76 318.526M1230.89 284.28H1128.71M1536.31 349.833L1576.66 376.004M1536.31 349.833H1597.76M1454.28 376.004L1492.46 404.898M1454.28 376.004H1576.66M1454.28 376.004H1331.9M1576.66 376.004L1597.76 389.692M1576.66 376.004H1597.76M1492.46 404.898H1363.72M1492.46 404.898L1597.76 404.897M1363.72 404.898H1234.98M1363.72 404.898L1331.9 376.004M1331.9 376.004H1209.52M808.06 20.2745L808.257 20.7198L808.453 21.1669L808.652 21.6163L808.85 22.0681L809.453 23.4342L809.654 23.8941M808.06 20.2745H852.091M808.06 20.2745H764.03M849.782 16.7813L848.103 14.2409L847.554 13.4082M849.782 16.7813L851.216 18.9501L852.091 20.2745M849.782 16.7813H893.043M847.554 13.4082H890.071M847.554 13.4082L845.932 10.9536L845.4 10.1493M803.6 10.1493L803.424 9.74916L802.728 8.16726L802.212 6.99823M803.6 10.1493H845.4M803.6 10.1493H761.8M852.091 20.2745L852.384 20.7198L852.681 21.1669L852.977 21.6163L853.276 22.0681L854.482 23.8941M852.091 20.2745H896.121M893.043 16.7813L890.805 14.2409L890.071 13.4082M893.043 16.7813L896.121 20.2745M890.071 13.4082L888.623 11.7648L887.553 10.5506L887.2 10.1493M845.4 10.1493L845.136 9.74916L844.611 8.95532L844.09 8.16726L843.832 7.77585L843.318 6.99823M845.4 10.1493H887.2M896.121 20.2745L898.502 22.9767L899.309 23.8941M929 10.1493L926.387 7.77585L925.53 6.99823M929 10.1493H887.2M887.2 10.1493L884.766 7.38618L884.424 6.99823M809.654 23.8941H854.482M809.654 23.8941H764.827M856.961 27.647L854.482 23.8941M856.961 27.647L859.534 31.5409M856.961 27.647H902.615M854.482 23.8941H899.309M764.827 23.8941H720M764.827 23.8941L764.03 20.2745M899.309 23.8941L902.615 27.647M764.03 20.2745H720M859.534 31.5409L860.194 32.5371L861.193 34.05L862.206 35.5838M859.534 31.5409H906.047M902.615 27.647L903.038 28.1254L906.047 31.5409M906.047 31.5409L906.484 32.0379L906.925 32.5371L907.366 33.0393L909.608 35.5838M814.804 35.5838L816.655 39.785M814.804 35.5838H862.206M814.804 35.5838H767.402M862.206 35.5838L864.982 39.785M862.206 35.5838H909.608M909.608 35.5838L912.37 38.7192L912.839 39.2509L913.309 39.785M816.655 39.785H864.982M816.655 39.785H768.327M867.869 44.1532L868.237 44.7116L868.608 45.2724L868.98 45.8366L870.872 48.6989M867.869 44.1532L866.411 41.9474L866.051 41.4029L865.693 40.8607L864.982 39.785M867.869 44.1532H917.158M864.982 39.785H913.309M768.327 39.785H720M768.327 39.785L767.402 35.5838M913.309 39.785L917.158 44.1532M767.402 35.5838H720M870.872 48.6989L873.602 52.8305L874 53.433M870.872 48.6989H921.163M917.158 44.1532L918.144 45.2724L921.163 48.6989M921.163 48.6989L922.707 50.4512L925.334 53.433M822.666 53.433L823.743 55.8742L824.014 56.493L824.841 58.3677M822.666 53.433H874M822.666 53.433H771.334M874 53.433L877.261 58.3677M874 53.433H925.334M925.334 53.433L929.681 58.3677M824.841 58.3677H877.261M824.841 58.3677H772.42M880.662 63.5159L877.261 58.3677M880.662 63.5159L884.214 68.8913M880.662 63.5159H934.217M877.261 58.3677H929.681M772.42 58.3677H720M772.42 58.3677L772.144 57.1146L771.601 54.6472L771.334 53.433M929.681 58.3677L934.217 63.5159M771.334 53.433H720M884.214 68.8913L886.983 73.0821L887.927 74.5103M884.214 68.8913H938.953M934.217 63.5159L938.953 68.8913M938.953 68.8913L941.4 71.6695L943.903 74.5103M831.951 74.5103L834.541 80.3891M831.951 74.5103H887.927M831.951 74.5103H775.976M887.927 74.5103L891.811 80.3891M887.927 74.5103H943.903M943.903 74.5103L949.082 80.3891M834.541 80.3891H891.811M834.541 80.3891H777.271M895.88 86.5462L894.844 84.98L891.811 80.3891M895.88 86.5462L900.146 93.002M895.88 86.5462H954.507M891.811 80.3891H949.082M777.271 80.3891H720M777.271 80.3891L775.976 74.5103M949.082 80.3891L954.507 86.5462M775.976 74.5103H720M900.146 93.002L904.623 99.779M900.146 93.002H960.194M954.507 86.5462L960.194 93.002M960.194 93.002L966.165 99.779M843.083 99.779L846.22 106.901M843.083 99.779H904.623M843.083 99.779H781.541M904.623 99.779L909.329 106.901M904.623 99.779H966.165M966.165 99.779L972.44 106.901M846.22 106.901H909.329M846.22 106.901H783.109M914.282 114.396L909.329 106.901M914.282 114.396L919.5 122.293M914.282 114.396H979.042M909.329 106.901H972.44M783.109 106.901H720M783.109 106.901L781.732 100.65L781.541 99.779M972.44 106.901L979.042 114.396M781.541 99.779H720M919.5 122.293L925.006 130.627M919.5 122.293H986M979.042 114.396L984.225 120.28L986 122.293M986 122.293L993.342 130.627M856.671 130.627L860.55 139.433M856.671 130.627H925.006M856.671 130.627H788.336M925.006 130.627L930.825 139.433M925.006 130.627H993.342M993.342 130.627L1001.1 139.433M860.55 139.433H930.825M860.55 139.433H790.275M936.984 148.755L930.825 139.433M936.984 148.755L943.514 158.636M936.984 148.755H1009.31M930.825 139.433H1001.1M790.275 139.433H720M790.275 139.433L788.336 130.627M1001.1 139.433L1009.31 148.755M788.336 130.627H720M943.514 158.636L950.449 169.132M943.514 158.636H1018.02M1009.31 148.755L1018.02 158.636M1018.02 158.636L1027.27 169.132M873.633 169.132L878.552 180.299M873.633 169.132H950.449M873.633 169.132H796.816M950.449 169.132L957.828 180.299M950.449 169.132H1027.27M1027.27 169.132L1037.1 180.299M878.552 180.299H957.828M878.552 180.299H799.276M965.695 192.205L957.828 180.299M965.695 192.205L974.1 204.926M965.695 192.205H1047.59M957.828 180.299H1037.1M799.276 180.299H720M799.276 180.299L796.816 169.132M1037.1 180.299L1047.59 192.205M796.816 169.132H720M974.1 204.926L983.101 218.548M974.1 204.926H1058.8M1047.59 192.205L1058.8 204.926M1058.8 204.926L1070.8 218.548M895.4 218.548L901.842 233.171M895.4 218.548H983.101M895.4 218.548H807.701M983.101 218.548L992.763 233.171M983.101 218.548H1070.8M1070.8 218.548L1083.68 233.171M901.842 233.171H992.763M901.842 233.171H810.921M1003.16 248.908L992.763 233.171M1003.16 248.908L1014.38 265.893M1003.16 248.908H1097.55M992.763 233.171H1083.68M810.921 233.171H720M810.921 233.171L807.701 218.548M1083.68 233.171L1097.55 248.908M807.701 218.548H720M1014.38 265.893L1026.53 284.28M1014.38 265.893H1112.51M1097.55 248.908L1112.51 265.893M1112.51 265.893L1128.71 284.28M924.355 284.28L933.152 304.25M924.355 284.28H1026.53M924.355 284.28H822.178M1026.53 284.28L1039.73 304.25M1026.53 284.28H1128.71M1128.71 284.28L1146.3 304.25M933.152 304.25H1039.73M933.152 304.25C933.152 304.25 868.197 304.25 826.576 304.25M1054.11 326.016L1039.73 304.25M1054.11 326.016L1069.85 349.833M1054.11 326.016H1165.48M1039.73 304.25H1146.3M826.576 304.25C784.956 304.25 720 304.25 720 304.25M826.576 304.25C824.859 296.451 822.178 284.28 822.178 284.28M1146.3 304.25L1165.48 326.016M822.178 284.28H720M1069.85 349.833L1087.14 376.004M1069.85 349.833H1186.46M1165.48 326.016L1186.46 349.833M1186.46 349.833L1209.52 376.004M964.76 376.004L977.488 404.898M964.76 376.004H1087.14M964.76 376.004H842.38M1087.14 376.004L1106.23 404.898M1087.14 376.004H1209.52M1209.52 376.004L1234.98 404.898M1106.23 404.898H977.488M1106.23 404.898H1234.98M977.488 404.898H848.744M848.744 404.898H720M848.744 404.898L842.38 376.004M842.38 376.004H720M631.94 20.2745L631.744 20.7198L631.547 21.1669L631.349 21.6163L631.15 22.0681L630.75 22.9767L630.548 23.4342L630.346 23.8941M631.94 20.2745H675.97M631.94 20.2745H587.909M676.739 16.7813L677.483 13.4082M676.739 16.7813L675.97 20.2745M676.739 16.7813H720M677.483 13.4082L677.573 12.9947L677.664 12.583L677.754 12.173L678.2 10.1493M677.483 13.4082H720M636.4 10.1493L636.576 9.74916L637.273 8.16726L637.788 6.99823M636.4 10.1493H678.2M636.4 10.1493H594.6M675.97 20.2745L675.871 20.7198L675.774 21.1669L675.674 21.6163L675.173 23.8941M675.97 20.2745H720M720 16.7813V13.4082M720 16.7813V20.2745M720 13.4082V10.1493M678.2 10.1493H720M678.2 10.1493L678.463 8.95532L678.55 8.56042L678.894 6.99823M720 20.2745V23.8941M761.8 10.1493L761.538 8.95532L761.45 8.56042L761.364 8.16726L761.277 7.77585L761.192 7.38618L761.106 6.99823M761.8 10.1493H720M720 10.1493V6.99823M630.346 23.8941H675.173M630.346 23.8941H585.518M674.346 27.647L674.24 28.1254L674.135 28.6067L673.489 31.5409M674.346 27.647L675.173 23.8941M674.346 27.647H720M675.173 23.8941H720M585.518 23.8941H540.691M585.518 23.8941L586.124 22.9767L586.425 22.5215L586.724 22.0681L587.023 21.6163L587.32 21.1669L587.616 20.7198L587.909 20.2745M720 23.8941V27.647M587.909 20.2745H543.879M673.489 31.5409L672.598 35.5838M673.489 31.5409H720M720 27.647V31.5409M720 31.5409V35.5838M625.196 35.5838L623.345 39.785M625.196 35.5838H672.598M625.196 35.5838H577.794M672.598 35.5838L671.673 39.785M672.598 35.5838H720M720 35.5838V39.785M623.345 39.785H671.673M623.345 39.785H575.018M670.711 44.1532L671.673 39.785M670.711 44.1532L669.71 48.6989M670.711 44.1532H720M671.673 39.785H720M575.018 39.785H526.691M575.018 39.785L577.794 35.5838M720 39.785V44.1532M577.794 35.5838H530.392M669.71 48.6989L669.324 50.4512L668.932 52.2309L668.666 53.433M669.71 48.6989H720M720 44.1532V48.6989M720 48.6989V53.433M617.334 53.433L616.258 55.8742L615.986 56.493L615.159 58.3677M617.334 53.433H668.666M617.334 53.433H566M668.666 53.433L668.399 54.6472L667.856 57.1146L667.58 58.3677M668.666 53.433H720M720 53.433V58.3677M615.159 58.3677H667.58M615.159 58.3677H562.739M666.446 63.5159L666.59 62.86L667.58 58.3677M666.446 63.5159L665.262 68.8913M666.446 63.5159H720M667.58 58.3677H720M562.739 58.3677H510.32M562.739 58.3677L566 53.433M720 58.3677V63.5159M566 53.433H514.666M665.262 68.8913L664.024 74.5103M665.262 68.8913H720M720 63.5159V68.8913M720 68.8913V74.5103M608.049 74.5103L605.459 80.3891M608.049 74.5103H664.024M608.049 74.5103H552.073M664.024 74.5103L662.73 80.3891M664.024 74.5103H720M720 74.5103V80.3891M605.459 80.3891H662.73M605.459 80.3891H548.189M661.374 86.5462L662.73 80.3891M661.374 86.5462L659.952 93.002M661.374 86.5462H720M662.73 80.3891H720M548.189 80.3891H490.918M548.189 80.3891L552.073 74.5103M720 80.3891V86.5462M552.073 74.5103H496.097M659.952 93.002L658.459 99.779M659.952 93.002H720M720 86.5462V93.002M720 93.002V99.779M596.917 99.779L593.78 106.901M596.917 99.779H658.459M596.917 99.779H535.377M658.459 99.779L656.891 106.901M658.459 99.779H720M720 99.779V106.901M593.78 106.901H656.891M593.78 106.901H530.671M655.239 114.396L656.891 106.901M655.239 114.396L653.5 122.293M655.239 114.396H720M656.891 106.901H720M530.671 106.901H467.561M530.671 106.901L535.377 99.779M720 106.901V114.396M535.377 99.779H473.836M653.5 122.293L651.664 130.627M653.5 122.293H720M720 114.396V122.293M720 122.293V130.627M583.33 130.627L579.45 139.433M583.33 130.627H651.664M583.33 130.627H514.994M651.664 130.627L649.725 139.433M651.664 130.627H720M720 130.627V139.433M579.45 139.433H649.725M579.45 139.433H509.175M647.672 148.755L649.725 139.433M647.672 148.755L645.495 158.636M647.672 148.755H720M649.725 139.433H720M509.175 139.433H438.9M509.175 139.433L514.994 130.627M720 139.433V148.755M514.994 130.627H446.658M645.495 158.636L643.184 169.132M645.495 158.636H720M720 148.755V158.636M720 158.636V169.132M566.368 169.132L561.448 180.299M566.368 169.132H643.184M566.368 169.132H489.551M643.184 169.132L640.724 180.299M643.184 169.132H720M720 169.132V180.299M561.448 180.299H640.724M561.448 180.299H482.173M638.102 192.205L640.724 180.299M638.102 192.205L635.3 204.926M638.102 192.205H720M640.724 180.299H720M482.173 180.299H402.897M482.173 180.299L489.551 169.132M720 180.299V192.205M489.551 169.132H412.735M635.3 204.926L632.3 218.548M635.3 204.926H720M720 192.205V204.926M720 204.926V218.548M544.6 218.548L538.158 233.171M544.6 218.548H632.3M544.6 218.548H456.899M632.3 218.548L629.079 233.171M632.3 218.548H720M720 218.548V233.171M538.158 233.171H629.079M538.158 233.171H447.238M625.613 248.908L629.079 233.171M625.613 248.908L621.872 265.893M625.613 248.908H720M629.079 233.171H720M447.238 233.171H356.317M447.238 233.171L456.899 218.548M720 233.171V248.908M456.899 218.548H369.199M621.872 265.893L617.822 284.28M621.872 265.893H720M720 248.908V265.893M720 265.893V284.28M515.645 284.28L506.848 304.25M515.645 284.28H617.822M515.645 284.28H413.467M617.822 284.28L613.424 304.25M617.822 284.28H720M720 284.28V304.25M506.848 304.25H613.424M506.848 304.25H400.272M608.63 326.016L613.424 304.25M608.63 326.016L603.385 349.833M608.63 326.016H720M613.424 304.25H720M400.272 304.25H293.696M400.272 304.25L413.467 284.28M720 304.25V326.016M413.467 284.28H311.289M603.385 349.833L597.62 376.004M603.385 349.833H720M720 326.016V349.833M720 349.833V376.004M475.24 376.004L462.512 404.898M475.24 376.004H597.62M475.24 376.004H352.86M597.62 376.004L591.256 404.898M597.62 376.004H720M720 376.004V404.898M591.256 404.898H462.512M591.256 404.898H720M462.512 404.898H333.768M333.768 404.898H205.024M333.768 404.898L352.86 376.004M352.86 376.004H230.479M455.82 20.2745L453.45 22.0681L451.037 23.8941M455.82 20.2745H499.85M455.82 20.2745H411.79M503.696 16.7813L507.411 13.4082M503.696 16.7813L499.85 20.2745M503.696 16.7813H546.957M507.411 13.4082H549.929M507.411 13.4082L510.114 10.9536L511 10.1493M469.2 10.1493H511M469.2 10.1493L470.778 8.95532L473.364 6.99823M469.2 10.1493H427.4M499.85 20.2745L495.864 23.8941M499.85 20.2745H543.879M546.957 16.7813L549.929 13.4082M546.957 16.7813L543.879 20.2745M549.929 13.4082L551.377 11.7648L552.447 10.5506L552.8 10.1493M511 10.1493H552.8M511 10.1493L513.613 7.77585L514.47 6.99823M543.879 20.2745L541.499 22.9767L540.691 23.8941M594.6 10.1493L594.864 9.74916L595.389 8.95532L596.168 7.77585L596.682 6.99823M594.6 10.1493H552.8M552.8 10.1493L553.152 9.74916L553.852 8.95532L555.576 6.99823M451.037 23.8941H495.864M451.037 23.8941H406.208M491.73 27.647L492.256 27.1704L492.778 26.6955L494.844 24.819L495.864 23.8941M491.73 27.647L488.529 30.5534L487.442 31.5409M491.73 27.647H537.385M495.864 23.8941H540.691M406.208 23.8941H361.381M406.208 23.8941L410.413 21.1669L411.79 20.2745M540.691 23.8941L537.385 27.647M411.79 20.2745H367.759M487.442 31.5409L486.895 32.0379L486.345 32.5371L484.68 34.05L484.118 34.5586L482.99 35.5838M487.442 31.5409H533.953M537.385 27.647L536.963 28.1254L533.953 31.5409M533.953 31.5409L533.516 32.0379L533.076 32.5371L532.634 33.0393L530.392 35.5838M435.588 35.5838L430.036 39.785M435.588 35.5838H482.99M435.588 35.5838H388.186M482.99 35.5838L478.363 39.785M482.99 35.5838H530.392M530.392 35.5838L526.691 39.785M430.036 39.785H478.363M430.036 39.785H381.709M473.553 44.1532L478.363 39.785M473.553 44.1532L468.547 48.6989M473.553 44.1532H522.842M478.363 39.785H526.691M381.709 39.785H333.381M381.709 39.785L388.186 35.5838M526.691 39.785L522.842 44.1532M388.186 35.5838H340.783M468.547 48.6989L463.334 53.433M468.547 48.6989H518.838M522.842 44.1532L521.856 45.2724L518.838 48.6989M518.838 48.6989L517.293 50.4512L515.725 52.2309L514.666 53.433M412 53.433L408.773 55.8742L405.479 58.3677M412 53.433H463.334M412 53.433H360.666M463.334 53.433L457.899 58.3677M463.334 53.433H514.666M514.666 53.433L510.32 58.3677M405.479 58.3677H457.899M405.479 58.3677H353.059M452.23 63.5159L457.899 58.3677M452.23 63.5159L446.31 68.8913M452.23 63.5159H505.784M457.899 58.3677H510.32M353.059 58.3677H300.638M353.059 58.3677L360.666 53.433M510.32 58.3677L505.784 63.5159M360.666 53.433H309.333M446.31 68.8913L444.788 70.2726L440.122 74.5103M446.31 68.8913H501.047M505.784 63.5159L501.047 68.8913M501.047 68.8913L500.441 69.5802L498.601 71.6695L496.097 74.5103M384.146 74.5103L376.377 80.3891M384.146 74.5103H440.122M384.146 74.5103H328.171M440.122 74.5103L433.648 80.3891M440.122 74.5103H496.097M496.097 74.5103L490.918 80.3891M376.377 80.3891H433.648M376.377 80.3891H319.107M426.867 86.5462L431.143 82.6645L433.648 80.3891M426.867 86.5462L419.757 93.002M426.867 86.5462H485.494M433.648 80.3891H490.918M319.107 80.3891H261.836M319.107 80.3891L328.171 74.5103M490.918 80.3891L485.494 86.5462M328.171 74.5103H272.195M419.757 93.002L412.294 99.779M419.757 93.002H479.806M485.494 86.5462L479.806 93.002M479.806 93.002L473.836 99.779M350.753 99.779L341.341 106.901M350.753 99.779H412.294M350.753 99.779H289.213M412.294 99.779L404.451 106.901M412.294 99.779H473.836M473.836 99.779L467.561 106.901M341.341 106.901H404.451M341.341 106.901H278.231M396.197 114.396L404.451 106.901M396.197 114.396L387.5 122.293M396.197 114.396H460.958M404.451 106.901H467.561M278.231 106.901H215.122M278.231 106.901L289.213 99.779M467.561 106.901L460.958 114.396M289.213 99.779H227.671M387.5 122.293L378.323 130.627M387.5 122.293H454M460.958 114.396L454 122.293M454 122.293L446.658 130.627M309.987 130.627L298.35 139.433M309.987 130.627H378.323M309.987 130.627H241.651M378.323 130.627L368.625 139.433M378.323 130.627H446.658M446.658 130.627L438.9 139.433M298.35 139.433H368.625M298.35 139.433H228.074M358.359 148.755L368.625 139.433M358.359 148.755L347.477 158.636M358.359 148.755H430.688M368.625 139.433H438.9M228.074 139.433H157.799M228.074 139.433L241.651 130.627M438.9 139.433L430.688 148.755M241.651 130.627H173.317M347.477 158.636L335.919 169.132M347.477 158.636H421.982M430.688 148.755L421.982 158.636M421.982 158.636L412.735 169.132M259.103 169.132L244.345 180.299M259.103 169.132H335.919M259.103 169.132H182.286M335.919 169.132L323.621 180.299M335.919 169.132H412.735M412.735 169.132L402.897 180.299M244.345 180.299H323.621M244.345 180.299H165.069M310.509 192.205L323.621 180.299M310.509 192.205L296.5 204.926M310.509 192.205H392.408M323.621 180.299H402.897M165.069 180.299H85.7934M165.069 180.299L182.286 169.132M402.897 180.299L392.408 192.205M182.286 169.132H105.47M296.5 204.926L281.499 218.548M296.5 204.926H381.2M392.408 192.205L381.2 204.926M381.2 204.926L369.199 218.548M193.799 218.548L174.475 233.171M193.799 218.548H281.499M193.799 218.548H106.098M281.499 218.548L265.396 233.171M281.499 218.548H369.199M369.199 218.548L356.317 233.171M174.475 233.171H265.396M174.475 233.171H83.5542M248.065 248.908L265.396 233.171M248.065 248.908L229.36 265.893M248.065 248.908H342.452M265.396 233.171H356.317M83.5542 233.171H-7.36663M83.5542 233.171L106.098 218.548M356.317 233.171L342.452 248.908M106.098 218.548H18.3976M229.36 265.893L209.111 284.28M229.36 265.893H327.488M342.452 248.908L327.488 265.893M327.488 265.893L311.289 284.28M106.934 284.28L80.5433 304.25M106.934 284.28H209.111M106.934 284.28H4.7557M209.111 284.28L187.119 304.25M209.111 284.28H311.289M311.289 284.28L293.696 304.25M80.5433 304.25H187.119M80.5433 304.25H-26.0328M163.149 326.016L187.119 304.25M163.149 326.016L136.92 349.833M163.149 326.016H274.519M187.119 304.25H293.696M-26.0328 304.25H-132.609M-26.0328 304.25L4.7557 284.28M293.696 304.25L274.519 326.016M4.7557 284.28H-97.4216M136.92 349.833L108.1 376.004M136.92 349.833H253.537M274.519 326.016L253.537 349.833M253.537 349.833L230.479 376.004M-14.2808 376.004L-52.4636 404.898M-14.2808 376.004H108.1M-14.2808 376.004H-136.661M108.1 376.004L76.2807 404.898M108.1 376.004H230.479M230.479 376.004L205.024 404.898M76.2807 404.898H-52.4636M76.2807 404.898H205.024M-52.4636 404.898L-157.764 404.897M-136.661 376.004L-157.764 389.692M-136.661 376.004H-157.764M279.699 20.2745L271.727 23.8941M279.699 20.2745H323.729M279.699 20.2745H235.669M330.653 16.7813L337.34 13.4082M330.653 16.7813L323.729 20.2745M330.653 16.7813H373.914M337.34 13.4082H379.857M337.34 13.4082L343.8 10.1493M302 10.1493H343.8M302 10.1493L304.63 8.95532L308.94 6.99823M302 10.1493H260.2M323.729 20.2745L316.554 23.8941M323.729 20.2745H367.759M373.914 16.7813L379.857 13.4082M373.914 16.7813L367.759 20.2745M379.857 13.4082L384.183 10.9536L385.6 10.1493M343.8 10.1493L344.592 9.74916L350.046 6.99823M343.8 10.1493H385.6M367.759 20.2745L361.381 23.8941M427.4 10.1493L432.258 6.99823M427.4 10.1493H385.6M385.6 10.1493L387.704 8.95532L391.152 6.99823M271.727 23.8941H316.554M271.727 23.8941H226.9M309.115 27.647L316.554 23.8941M309.115 27.647L301.396 31.5409M309.115 27.647H354.769M316.554 23.8941H361.381M226.9 23.8941H182.072M226.9 23.8941L235.669 20.2745M361.381 23.8941L354.769 27.647M235.669 20.2745H191.639M301.396 31.5409L299.42 32.5371L293.381 35.5838M301.396 31.5409H347.908M354.769 27.647L347.908 31.5409M347.908 31.5409L340.783 35.5838M245.979 35.5838L244.842 36.1005L236.727 39.785M245.979 35.5838H293.381M245.979 35.5838H198.577M293.381 35.5838L285.054 39.785M293.381 35.5838H340.783M340.783 35.5838L339.874 36.1005L333.381 39.785M236.727 39.785H285.054M236.727 39.785H188.4M276.395 44.1532L285.054 39.785M276.395 44.1532L267.385 48.6989M276.395 44.1532H325.685M285.054 39.785H333.381M188.4 39.785H140.072M188.4 39.785L198.577 35.5838M333.381 39.785L325.685 44.1532M198.577 35.5838H151.175M267.385 48.6989L258 53.433M267.385 48.6989H317.675M325.685 44.1532L317.675 48.6989M317.675 48.6989L309.333 53.433M206.667 53.433L195.798 58.3677M206.667 53.433H258M206.667 53.433H155.333M258 53.433L248.218 58.3677M258 53.433H309.333M309.333 53.433L300.638 58.3677M195.798 58.3677H248.218M195.798 58.3677H143.378M238.013 63.5159L248.218 58.3677M238.013 63.5159L227.357 68.8913M238.013 63.5159H291.567M248.218 58.3677H300.638M143.378 58.3677H90.9576M143.378 58.3677L155.333 53.433M300.638 58.3677L291.567 63.5159M155.333 53.433H104M227.357 68.8913L216.219 74.5103M227.357 68.8913H282.095M291.567 63.5159L282.095 68.8913M282.095 68.8913L272.195 74.5103M160.243 74.5103L147.295 80.3891M160.243 74.5103H216.219M160.243 74.5103H104.268M216.219 74.5103L204.566 80.3891M216.219 74.5103H272.195M272.195 74.5103L261.836 80.3891M147.295 80.3891H204.566M147.295 80.3891H90.025M192.36 86.5462L204.566 80.3891M192.36 86.5462L179.563 93.002M192.36 86.5462H250.987M204.566 80.3891H261.836M90.025 80.3891H32.7545M90.025 80.3891L104.268 74.5103M261.836 80.3891L250.987 86.5462M104.268 74.5103H48.2919M179.563 93.002L166.13 99.779M179.563 93.002H239.612M250.987 86.5462L239.612 93.002M239.612 93.002L227.671 99.779M104.589 99.779L88.9022 106.901M104.589 99.779H166.13M104.589 99.779H43.0481M166.13 99.779L152.012 106.901M166.13 99.779H227.671M227.671 99.779L215.122 106.901M88.9022 106.901H152.012M88.9022 106.901H25.7919M137.155 114.396L152.012 106.901M137.155 114.396L121.5 122.293M137.155 114.396H201.915M152.012 106.901H215.122M25.7919 106.901H-37.3176M25.7919 106.901L43.0481 99.779M215.122 106.901L201.915 114.396M43.0481 99.779H-18.4932M121.5 122.293L104.981 130.627M121.5 122.293H188M201.915 114.396L188 122.293M188 122.293L173.317 130.627M36.645 130.627L17.2492 139.433M36.645 130.627H104.981M36.645 130.627H-31.6898M104.981 130.627L87.5243 139.433M104.981 130.627H173.317M173.317 130.627L157.799 139.433M17.2492 139.433H87.5243M17.2492 139.433H-53.0259M69.0473 148.755L87.5243 139.433M69.0473 148.755L49.4585 158.636M69.0473 148.755H141.375M87.5243 139.433H157.799M-53.0259 139.433H-123.301M-53.0259 139.433L-31.6898 130.627M157.799 139.433L141.375 148.755M-31.6898 130.627H-100.026M49.4585 158.636L28.6537 169.132M49.4585 158.636H123.963M141.375 148.755L123.963 158.636M123.963 158.636L105.47 169.132M-48.1625 169.132L-72.7582 180.299M-48.1625 169.132H28.6537M-48.1625 169.132H-124.979M28.6537 169.132L6.51763 180.299M28.6537 169.132H105.47M105.47 169.132L85.7934 180.299M-72.7582 180.299H6.51763M-72.7582 180.299H-152.034M-17.0842 192.205L6.51763 180.299M-17.0842 192.205L-42.2998 204.926M-17.0842 192.205H64.8139M6.51763 180.299H85.7934M-152.034 180.299L-124.979 169.132M-152.034 180.299H-157.764M-152.034 180.299L-157.764 182.664M85.7934 180.299L64.8139 192.205M-124.979 169.132H-157.764M-42.2998 204.926L-69.302 218.548M-42.2998 204.926H42.3999M64.8139 192.205L42.3999 204.926M42.3999 204.926L18.3976 218.548M-157.003 218.548H-69.302M-157.003 218.548H-157.764M-157.003 218.548L-157.764 218.894M-69.302 218.548L-98.2884 233.171M-69.302 218.548H18.3976M18.3976 218.548L-7.36663 233.171M-129.484 248.908L-98.2884 233.171M-129.484 248.908H-35.0967M-129.484 248.908H-157.764M-129.484 248.908L-157.764 263.175M-98.2884 233.171H-7.36663M-98.2884 233.171H-157.764M-7.36663 233.171L-35.0967 248.908M-35.0967 248.908L-65.0239 265.893M-65.0239 265.893L-97.4216 284.28M-65.0239 265.893H-157.764M-97.4216 284.28L-132.609 304.25M-97.4216 284.28H-157.764M-132.609 304.25H-157.764M-132.609 304.25L-157.764 318.526M103.578 20.2745L92.4178 23.8941M103.578 20.2745H147.609M103.578 20.2745H59.5483M157.61 16.7813L167.268 13.4082M157.61 16.7813L147.609 20.2745M157.61 16.7813H200.871M167.268 13.4082H209.786M167.268 13.4082L176.6 10.1493M134.8 10.1493H176.6M134.8 10.1493L144.516 6.99823M134.8 10.1493H93.0003M147.609 20.2745L137.245 23.8941M147.609 20.2745H191.639M200.871 16.7813L209.786 13.4082M200.871 16.7813L191.639 20.2745M209.786 13.4082L218.4 10.1493M176.6 10.1493L177.744 9.74916L185.622 6.99823M176.6 10.1493H218.4M191.639 20.2745L182.072 23.8941M260.2 10.1493L267.834 6.99823M260.2 10.1493H218.4M218.4 10.1493L219.456 9.74916L226.728 6.99823M92.4178 23.8941H137.245M92.4178 23.8941H47.5906M126.499 27.647L137.245 23.8941M126.499 27.647L115.349 31.5409M126.499 27.647H172.154M137.245 23.8941H182.072M47.5906 23.8941H2.76334M47.5906 23.8941L59.5483 20.2745M182.072 23.8941L172.154 27.647M59.5483 20.2745H15.5183M115.349 31.5409L103.773 35.5838M115.349 31.5409H161.861M172.154 27.647L170.887 28.1254L161.861 31.5409M161.861 31.5409L151.175 35.5838M56.371 35.5838L43.4175 39.785M56.371 35.5838H103.773M56.371 35.5838H8.96896M103.773 35.5838L91.7449 39.785M103.773 35.5838H151.175M151.175 35.5838L140.072 39.785M43.4175 39.785H91.7449M43.4175 39.785H-4.90979M79.2376 44.1532L91.7449 39.785M79.2376 44.1532L66.222 48.6989M79.2376 44.1532H128.527M91.7449 39.785H140.072M-4.90979 39.785H-53.2371M-4.90979 39.785L8.96896 35.5838M140.072 39.785L128.527 44.1532M8.96896 35.5838H-38.4331M66.222 48.6989L52.667 53.433M66.222 48.6989H116.512M128.527 44.1532L116.512 48.6989M116.512 48.6989L104 53.433M1.33332 53.433L-13.8831 58.3677M1.33332 53.433H52.667M1.33332 53.433H-50.0004M52.667 53.433L38.5377 58.3677M52.667 53.433H104M104 53.433L90.9576 58.3677M-13.8831 58.3677H38.5377M-13.8831 58.3677H-66.303M23.7968 63.5159L38.5377 58.3677M23.7968 63.5159L8.40481 68.8913M23.7968 63.5159H77.3514M38.5377 58.3677H90.9576M-66.303 58.3677H-118.723M-66.303 58.3677L-50.0004 53.433M90.9576 58.3677L77.3514 63.5159M-50.0004 53.433H-101.333M8.40481 68.8913L-7.68389 74.5103M8.40481 68.8913H63.1425M77.3514 63.5159L63.1425 68.8913M63.1425 68.8913L48.2919 74.5103M-63.6597 74.5103L-81.7864 80.3891M-63.6597 74.5103H-7.68389M-63.6597 74.5103H-119.635M-7.68389 74.5103L-24.5159 80.3891M-7.68389 74.5103H48.2919M48.2919 74.5103L32.7545 80.3891M-81.7864 80.3891H-24.5159M-42.1462 86.5462L-24.5159 80.3891M-42.1462 86.5462L-60.6305 93.002M-42.1462 86.5462H16.4811M-24.5159 80.3891H32.7545M32.7545 80.3891L16.4811 86.5462M-119.635 74.5103H-157.764M-60.6305 93.002L-80.0345 99.779M-60.6305 93.002H-0.582221M16.4811 86.5462L-0.582221 93.002M-0.582221 93.002L-18.4932 99.779M-141.576 99.779H-80.0345M-141.576 99.779H-157.764M-141.576 99.779L-157.764 105.029M-80.0345 99.779L-100.428 106.901M-80.0345 99.779H-18.4932M-18.4932 99.779L-37.3176 106.901M-121.887 114.396L-100.428 106.901M-121.887 114.396L-144.5 122.293M-121.887 114.396H-57.1267M-121.887 114.396H-157.764M-100.428 106.901H-37.3176M-100.428 106.901H-157.764M-37.3176 106.901L-57.1267 114.396M-157.943 105.087L-157.764 105.029M-144.5 122.293H-78.0001M-144.5 122.293H-157.764M-144.5 122.293L-157.764 126.926M-57.1267 114.396L-78.0001 122.293M-78.0001 122.293L-100.026 130.627M-100.026 130.627L-123.301 139.433M-100.026 130.627H-157.764M-147.937 148.755L-123.301 139.433M-147.937 148.755H-157.764M-147.937 148.755L-157.764 152.473M-123.301 139.433H-157.764M-72.5415 20.2745L-86.8911 23.8941M-72.5415 20.2745H-28.5116M-72.5415 20.2745H-116.572M-15.4329 16.7813L-2.80314 13.4082M-15.4329 16.7813L-28.5116 20.2745M-15.4329 16.7813H27.8281M-2.80314 13.4082H39.7145M-2.80314 13.4082L9.39959 10.1493M-32.4003 10.1493H9.39959M-32.4003 10.1493L-19.9086 6.99823M-32.4003 10.1493H-74.2001M-28.5116 20.2745L-42.0639 23.8941M-28.5116 20.2745H15.5183M27.8281 16.7813L39.7145 13.4082M27.8281 16.7813L15.5183 20.2745M39.7145 13.4082L51.1995 10.1493M9.39959 10.1493H51.1995M9.39959 10.1493L21.1982 6.99823M15.5183 20.2745L2.76334 23.8941M93.0003 10.1493L103.41 6.99823M93.0003 10.1493H51.1995M51.1995 10.1493L62.3041 6.99823M-86.8911 23.8941H-42.0639M-86.8911 23.8941H-131.718M-56.1164 27.647L-42.0639 23.8941M-56.1164 27.647L-70.6964 31.5409M-56.1164 27.647H-10.4626M-42.0639 23.8941H2.76334M-131.718 23.8941L-116.572 20.2745M-131.718 23.8941H-157.764M2.76334 23.8941L-10.4626 27.647M-116.572 20.2745H-157.764M-70.6964 31.5409L-85.8351 35.5838M-70.6964 31.5409H-24.1849M-10.4626 27.647L-24.1849 31.5409M-24.1849 31.5409L-38.4331 35.5838M-133.237 35.5838L-149.892 39.785M-133.237 35.5838H-85.8351M-133.237 35.5838H-157.764M-85.8351 35.5838L-101.564 39.785M-85.8351 35.5838H-38.4331M-38.4331 35.5838L-53.2371 39.785M-117.92 44.1532L-101.564 39.785M-117.92 44.1532L-134.941 48.6989M-117.92 44.1532H-68.6309M-117.92 44.1532H-157.764M-101.564 39.785H-149.892M-101.564 39.785H-53.2371M-149.892 39.785L-157.764 41.7705M-149.892 39.785H-157.764M-53.2371 39.785L-68.6309 44.1532M-134.941 48.6989L-152.667 53.433M-134.941 48.6989H-84.6501M-134.941 48.6989H-157.764M-68.6309 44.1532L-84.6501 48.6989M-84.6501 48.6989L-101.333 53.433M-152.667 53.433H-101.333M-152.667 53.433L-157.764 54.7941M-152.667 53.433H-157.764M-101.333 53.433L-118.723 58.3677M-136.865 63.5159L-118.723 58.3677M-136.865 63.5159L-155.809 68.8913M-136.865 63.5159H-157.764M-118.723 58.3677H-157.764M-158.039 58.3677H-157.764M-155.809 68.8913H-157.764M-155.809 68.8913L-157.764 69.4461M-158.237 69.5802L-157.764 69.4461M-145.215 16.7813L-130.357 13.4082M-145.215 16.7813H-157.764M-145.215 16.7813L-157.764 19.63M-130.357 13.4082L-116 10.1493M-130.357 13.4082H-157.764M-74.2001 10.1493L-61.0145 6.99823M-74.2001 10.1493H-116M-116 10.1493L-102.12 6.99823M-116 10.1493H-157.764M1295.48 6.99823H1336.59M1295.48 6.99823H1254.38M1326.52 3.9504L1329.01 4.70308L1336.59 6.99823M1326.52 3.9504H1366.96M1336.59 6.99823H1377.7M1366.96 3.9504L1369.61 4.70308L1370.94 5.08116L1377.7 6.99823M1377.7 6.99823H1418.8M1418.8 6.99823H1459.91M1254.38 6.99823H1213.27M1459.91 6.99823H1501.01M1501.01 6.99823L1488.26 3.9504M1501.01 6.99823H1542.12M1488.26 3.9504H1528.69M1131.06 6.99823H1172.17M1131.06 6.99823H1089.95M1164.78 3.9504L1166.6 4.70308L1167.52 5.08116L1172.17 6.99823M1164.78 3.9504H1205.22M1172.17 6.99823H1213.27M1205.22 3.9504L1213.27 6.99823M1089.95 6.99823H1048.85M966.636 6.99823H1007.74M966.636 6.99823H925.53M1003.04 3.9504L1003.62 4.32558L1004.2 4.70308L1004.79 5.08116L1007.74 6.99823M1003.04 3.9504H1043.48M1007.74 6.99823H1048.85M1043.48 3.9504L1048.85 6.99823M925.53 6.99823H884.424M802.212 6.99823H843.318M802.212 6.99823H761.106M841.304 3.9504L843.318 6.99823M841.304 3.9504H881.739M843.318 6.99823H884.424M881.739 3.9504L882.07 4.32558L882.402 4.70308L882.736 5.08116L884.424 6.99823M761.106 6.99823H720M637.788 6.99823H678.894M637.788 6.99823H596.682M679.565 3.9504L678.894 6.99823M679.565 3.9504H720M678.894 6.99823H720M720 3.9504V6.99823M596.682 6.99823H555.576M473.364 6.99823H514.47M473.364 6.99823H432.258M517.826 3.9504L516.998 4.70308L515.319 6.22642L514.47 6.99823M517.826 3.9504H558.261M514.47 6.99823H555.576M558.261 3.9504L557.93 4.32558L557.598 4.70308L557.264 5.08116L555.576 6.99823M432.258 6.99823H391.152M308.94 6.99823H350.046M308.94 6.99823H267.834M356.088 3.9504L354.596 4.70308L353.845 5.08116L350.046 6.99823M356.088 3.9504H396.523M350.046 6.99823H391.152M396.523 3.9504L395.861 4.32558L391.152 6.99823M267.834 6.99823H226.728M144.516 6.99823H185.622M144.516 6.99823H103.41M194.349 3.9504L192.194 4.70308L191.11 5.08116L185.622 6.99823M194.349 3.9504H234.784M185.622 6.99823H226.728M234.784 3.9504L233.791 4.32558L226.728 6.99823M103.41 6.99823H62.3041M-19.9086 6.99823H21.1982M-19.9086 6.99823H-61.0145M32.6101 3.9504L21.1982 6.99823M32.6101 3.9504H73.0448M21.1982 6.99823H62.3041M73.0448 3.9504L70.3933 4.70308L69.0583 5.08116L62.3041 6.99823M-61.0145 6.99823H-102.12M-129.128 3.9504L-143.226 6.99823M-129.128 3.9504H-88.6933M-129.128 3.9504H-157.764M-143.226 6.99823H-102.12M-143.226 6.99823L-157.764 10.1416M-143.226 6.99823H-157.764M-88.6933 3.9504L-92.0087 4.70308L-102.12 6.99823M1528.69 3.9504L1532.01 4.70308L1542.12 6.99823M1542.12 6.99823H1583.23M1583.23 6.99823L1597.76 10.1416M1583.23 6.99823H1597.76M1597.76 152.473V148.755M1597.76 152.473V158.636M1597.76 148.755V139.433M1597.76 158.636V160.478V169.132M1597.76 169.132V180.299M1597.76 80.3891V74.5103M1597.76 80.3891V86.0514M1597.76 3.9504V6.99823M1597.76 6.99823V10.1416M1597.76 10.1416L1597.8 10.1493H1597.76M1597.76 10.1416V10.1493M1597.76 10.1493V13.4082M1597.76 13.4082V16.7813M1597.76 16.7813V19.63M1597.76 19.63V20.2745M1597.76 20.2745V23.8941M1597.76 23.8941V27.647M1597.76 27.647V30.1174M1597.76 30.1174V31.5409M1597.76 31.5409V35.5838M1597.76 35.5838V39.785M1597.76 39.785V41.7705M1597.76 41.7705V44.1532M1597.76 44.1532V48.6989M1597.76 48.6989V53.433M1597.76 53.433V54.7941M1597.76 54.7941V58.3677M1597.76 58.3677V63.5159M1597.76 63.5159V68.8913M1597.76 68.8913V69.4461M1597.76 69.4461V74.5103M1597.76 86.5462V93.002M1597.76 86.5462V86.0514M1597.76 93.002V99.779M1597.76 99.779V105.029M1597.76 105.029V106.901M1597.76 106.901V114.396M1597.76 114.396V122.293M1597.76 122.293V126.926M1597.76 126.926V130.627M1597.76 130.627V139.433M1597.76 180.299V182.664M1597.76 182.664V192.205M1597.76 192.205V204.926M1597.76 204.926V218.548M1597.76 218.548V218.894M1597.76 218.894V233.171M1597.76 233.171V248.908M1597.76 248.908V263.175M1597.76 263.175V265.893M1597.76 265.893V284.28M1597.76 284.28V304.25M1597.76 304.25V318.526M1597.76 318.526V326.016M1597.76 326.016V349.833M1597.76 349.833V376.004M1597.76 376.004V389.692M1597.76 389.692V404.897M1597.76 404.897V405H-157.764V404.897M-157.764 86.5462V93.002M-157.764 86.5462V86.0514M-157.764 86.0514V80.3891M-157.764 80.3891V74.5103M-157.764 74.5103V69.4461M-157.764 69.4461V68.8913M-157.764 68.8913V63.5159M-157.764 63.5159V58.3677M-157.764 58.3677V54.7941M-157.764 54.7941V53.433M-157.764 53.433V48.6989M-157.764 48.6989V44.1532M-157.764 44.1532V41.7705M-157.764 41.7705V39.785M-157.764 39.785V35.5838M-157.764 35.5838V31.5409M-157.764 31.5409V30.1174M-157.764 30.1174V27.647M-157.764 27.647V23.8941M-157.764 23.8941V20.2745M-157.764 20.2745V19.63M-157.764 19.63V16.7813M-157.764 16.7813V13.4082M-157.764 13.4082V10.1493M-157.764 10.1493H-157.8L-157.764 10.1416M-157.764 10.1493V10.1416M-157.764 10.1416V6.99823M-157.764 6.99823V3.9504M-157.764 404.897V389.692M-157.764 389.692V376.004M-157.764 376.004V349.833M-157.764 349.833V326.016M-157.764 326.016V318.526M-157.764 318.526V304.25M-157.764 304.25V284.28M-157.764 284.28V265.893M-157.764 265.893V263.175M-157.764 263.175V248.908M-157.764 248.908V233.171M-157.764 233.171V218.894M-157.764 218.894V218.548M-157.764 218.548V204.926M-157.764 204.926V192.205M-157.764 192.205V182.664M-157.764 182.664V180.299M-157.764 180.299V169.132M-157.764 169.132V158.636M-157.764 158.636V152.473M-157.764 152.473V148.755M-157.764 148.755V139.433M-157.764 139.433V130.627M-157.764 130.627V126.926M-157.764 126.926V122.293M-157.764 122.293V114.396M-157.764 114.396V106.901M-157.764 106.901V105.029M-157.764 105.029V99.779M-157.764 99.779V93.002" stroke="url(#paint0_linear_1_226)" stroke-width="0.5" stroke-miterlimit="10" stroke-linecap="round" stroke-linejoin="round"/>
<defs>
<linearGradient id="paint0_linear_1_226" x1="720" y1="1" x2="720" y2="284.254" gradientUnits="userSpaceOnUse">
<stop stop-color="#BABABA" stop-opacity="0"/>
<stop offset="1" stop-color="#111112"/>
</linearGradient>
</defs>
</svg>
