<svg width="106" height="16" viewBox="0 0 106 16" fill="none" xmlns="http://www.w3.org/2000/svg">
<g clip-path="url(#clip0_1_313)">
<path d="M22.9784 0H2.97839C1.87382 0 0.978394 0.89543 0.978394 2V14C0.978394 15.1046 1.87382 16 2.97839 16H22.9784C24.083 16 24.9784 15.1046 24.9784 14V2C24.9784 0.89543 24.083 0 22.9784 0Z" fill="#252525"/>
<path d="M9.97839 13C12.7398 13 14.9784 10.7614 14.9784 8C14.9784 5.23858 12.7398 3 9.97839 3C7.21697 3 4.97839 5.23858 4.97839 8C4.97839 10.7614 7.21697 13 9.97839 13Z" fill="#EB001B"/>
<path d="M15.9784 13C18.7398 13 20.9784 10.7614 20.9784 8C20.9784 5.23858 18.7398 3 15.9784 3C13.217 3 10.9784 5.23858 10.9784 8C10.9784 10.7614 13.217 13 15.9784 13Z" fill="#F79E1B"/>
<path fill-rule="evenodd" clip-rule="evenodd" d="M12.9784 3.99963C14.1928 4.91184 14.9784 6.36418 14.9784 8C14.9784 9.63582 14.1928 11.0882 12.9784 12.0004C11.7639 11.0882 10.9784 9.63582 10.9784 8C10.9784 6.36418 11.7639 4.91184 12.9784 3.99963Z" fill="#FF5F00"/>
</g>
<g clip-path="url(#clip1_1_313)">
<path d="M49.7284 0.25H30.2284C29.1238 0.25 28.2284 1.14543 28.2284 2.25V13.75C28.2284 14.8546 29.1238 15.75 30.2284 15.75H49.7284C50.833 15.75 51.7284 14.8546 51.7284 13.75V2.25C51.7284 1.14543 50.833 0.25 49.7284 0.25Z" fill="white" stroke="black" stroke-opacity="0.2" stroke-width="0.5"/>
<path d="M30.7661 5.91444C30.243 5.62751 29.6459 5.39674 28.9784 5.23659L29.0064 5.11188H31.7434C32.1144 5.12489 32.4154 5.23651 32.5133 5.63071L33.1082 8.46659L33.2904 9.32073L34.9564 5.11188H36.7552L34.0813 11.2775H32.2824L30.7661 5.91444ZM38.0784 11.2841H36.3772L37.4412 5.11188H39.1423L38.0784 11.2841ZM44.2452 5.26277L44.0138 6.59559L43.86 6.53004C43.5521 6.40525 43.1458 6.28054 42.5928 6.29371C41.9211 6.29371 41.6199 6.56277 41.6129 6.82546C41.6129 7.11441 41.9773 7.30484 42.5723 7.58725C43.5524 8.02719 44.007 8.56557 44.0002 9.26819C43.9865 10.5486 42.8244 11.3761 41.0394 11.3761C40.2763 11.3694 39.5412 11.2181 39.1422 11.0476L39.3803 9.66205L39.6043 9.76066C40.1573 9.99071 40.5212 10.089 41.2004 10.089C41.6902 10.089 42.2153 9.89838 42.222 9.48488C42.222 9.21565 41.9983 9.01851 41.3401 8.71646C40.6962 8.42087 39.8352 7.92848 39.8492 7.04198C39.8564 5.84042 41.0394 5 42.7194 5C43.3774 5 43.9096 5.13789 44.2452 5.26277ZM46.5061 9.09749H47.9201C47.8502 8.78889 47.528 7.31147 47.528 7.31147L47.4091 6.77964C47.3251 7.00943 47.1783 7.38373 47.1853 7.37056C47.1853 7.37056 46.6462 8.7429 46.5061 9.09749ZM48.606 5.11188L49.9784 11.284H48.4033C48.4033 11.284 48.2492 10.5748 48.2003 10.3581H46.0162C45.953 10.5222 45.6592 11.284 45.6592 11.284H43.8742L46.401 5.62399C46.5761 5.22342 46.8844 5.11188 47.2902 5.11188H48.606Z" fill="#1434CB"/>
</g>
<g clip-path="url(#clip2_1_313)">
<path d="M76.9784 0H56.9784C55.8738 0 54.9784 0.89543 54.9784 2V14C54.9784 15.1046 55.8738 16 56.9784 16H76.9784C78.083 16 78.9784 15.1046 78.9784 14V2C78.9784 0.89543 78.083 0 76.9784 0Z" fill="#016FD0"/>
<path fill-rule="evenodd" clip-rule="evenodd" d="M68.7424 13.3938V7.69244L78.89 7.70155V9.27644L77.7171 10.5298L78.89 11.7947V13.403H77.0173L76.0222 12.3049L75.0341 13.4072L68.7424 13.3938Z" fill="#FFFFFE"/>
<path fill-rule="evenodd" clip-rule="evenodd" d="M69.4202 12.7688V8.31989H73.1925V9.34477H70.6416V10.0405H73.1317V11.0483H70.6416V11.7316H73.1925V12.7688H69.4202Z" fill="#016FD0"/>
<path fill-rule="evenodd" clip-rule="evenodd" d="M73.1737 12.7688L75.261 10.5418L73.1736 8.32001H74.7892L76.0647 9.73004L77.3438 8.32001H78.89V8.35501L76.8471 10.5418L78.89 12.7057V12.7688H77.3283L76.0302 11.3446L74.7454 12.7688H73.1737Z" fill="#016FD0"/>
<path fill-rule="evenodd" clip-rule="evenodd" d="M69.2158 2.63196H71.6618L72.5209 4.58281V2.63196H75.5408L76.0615 4.09353L76.5841 2.63196H78.89V8.33335H66.7035L69.2158 2.63196Z" fill="#FFFFFE"/>
<path fill-rule="evenodd" clip-rule="evenodd" d="M69.6788 3.2514L67.7048 7.69658H69.0587L69.4312 6.80641H71.4491L71.8213 7.69658H73.2088L71.243 3.2514H69.6788ZM69.8485 5.80884L70.4405 4.39377L71.032 5.80884H69.8485Z" fill="#016FD0"/>
<path fill-rule="evenodd" clip-rule="evenodd" d="M73.1904 7.69575V3.25067L75.0935 3.25721L76.0728 5.98994L77.0584 3.25067H78.89V7.69575L77.7114 7.70619V4.65284L76.5988 7.69575H75.523L74.3874 4.64241V7.69575H73.1904Z" fill="#016FD0"/>
</g>
<g clip-path="url(#clip3_1_313)">
<path d="M103.976 15.7499L103.978 15.7499C104.933 15.7581 105.716 14.9773 105.728 14.0042L105.728 2.0063C105.725 1.53569 105.537 1.08617 105.208 0.756802C104.88 0.428269 104.437 0.246149 103.976 0.250071L83.979 0.250062C83.5195 0.246149 83.077 0.428269 82.7487 0.756802C82.4195 1.08617 82.2322 1.53569 82.2284 2.00426L82.2284 13.9937C82.2322 14.4643 82.4195 14.9138 82.7487 15.2432C83.077 15.5717 83.5195 15.7538 83.9812 15.7499H103.976ZM103.975 16.2499C103.974 16.2499 103.974 16.2499 103.974 16.2499L103.976 16.2499H103.975Z" fill="white" stroke="black" stroke-opacity="0.2" stroke-width="0.5"/>
<path d="M94.5908 15.9999H103.976C104.502 16.0043 105.009 15.7993 105.385 15.4299C105.761 15.0605 105.974 14.557 105.978 14.0303V11.6716C102.435 13.7059 98.5912 15.1668 94.5908 15.9999Z" fill="#F27712"/>
<path d="M105.151 9.29649H104.298L103.338 8.03029H103.247V9.29649H102.552V6.15167H103.578C104.381 6.15167 104.845 6.4827 104.845 7.07856C104.845 7.56684 104.555 7.88132 104.034 7.98063L105.151 9.29649ZM104.125 7.10339C104.125 6.79718 103.893 6.63994 103.463 6.63994H103.247V7.59167H103.446C103.893 7.59167 104.125 7.42615 104.125 7.10339ZM100.119 6.15167H102.089V6.68132H100.814V7.38477H102.039V7.9227H100.814V8.77512H102.089V9.30477H100.119V6.15167ZM97.8846 9.37925L96.3784 6.14339H97.1398L98.0915 8.26201L99.0515 6.14339H99.7963L98.2736 9.37925H97.9011H97.8846ZM91.5867 9.37098C90.5273 9.37098 89.6998 8.65098 89.6998 7.71581C89.6998 6.80546 90.5439 6.06891 91.6032 6.06891C91.9011 6.06891 92.1494 6.12684 92.4556 6.25925V6.98753C92.2237 6.75971 91.9117 6.63194 91.5867 6.63167C90.9246 6.63167 90.4198 7.11167 90.4198 7.71581C90.4198 8.35305 90.9163 8.80822 91.6198 8.80822C91.9342 8.80822 92.1742 8.70891 92.4556 8.46063V9.18891C92.1411 9.32132 91.8763 9.37098 91.5867 9.37098ZM89.4846 8.33649C89.4846 8.94891 88.9798 9.37098 88.2515 9.37098C87.7218 9.37098 87.3411 9.18891 87.0184 8.77512L87.4736 8.38615C87.6308 8.66753 87.8956 8.80822 88.2267 8.80822C88.5411 8.80822 88.7646 8.61787 88.7646 8.3696C88.7646 8.22891 88.6984 8.12132 88.5577 8.03856C88.4034 7.96371 88.2428 7.90277 88.0777 7.85649C87.4239 7.6496 87.2005 7.42615 87.2005 6.98753C87.2005 6.47443 87.6805 6.08546 88.3094 6.08546C88.7067 6.08546 89.0625 6.2096 89.3605 6.44132L88.9963 6.85512C88.852 6.6969 88.6477 6.60677 88.4336 6.60684C88.1356 6.60684 87.9205 6.75581 87.9205 6.95443C87.9205 7.11994 88.0446 7.21098 88.4584 7.35167C89.2529 7.59994 89.4846 7.83167 89.4846 8.34477V8.33649ZM86.0667 6.15167H86.7618V9.30477H86.0667V6.15167ZM83.8322 9.30477H82.806V6.15167H83.8322C84.9577 6.15167 85.7356 6.79718 85.7356 7.72408C85.7356 8.19581 85.5039 8.6427 85.0984 8.94063C84.7508 9.18891 84.3618 9.30477 83.8239 9.30477H83.8322ZM84.6432 6.93787C84.4115 6.75581 84.1467 6.6896 83.6915 6.6896H83.5011V8.77512H83.6915C84.1384 8.77512 84.4198 8.69236 84.6432 8.52684C84.8832 8.32822 85.0239 8.03029 85.0239 7.72408C85.0239 7.41787 84.8832 7.12822 84.6432 6.93787Z" fill="black"/>
<path d="M94.3922 6.06891C93.4818 6.06891 92.737 6.79718 92.737 7.69925C92.737 8.65925 93.4487 9.37925 94.3922 9.37925C95.3191 9.37925 96.0473 8.65098 96.0473 7.72408C96.0473 6.79718 95.3273 6.06891 94.3922 6.06891Z" fill="#F27712"/>
</g>
<defs>
<clipPath id="clip0_1_313">
<rect width="24" height="16" fill="white" transform="translate(0.978394)"/>
</clipPath>
<clipPath id="clip1_1_313">
<rect width="24" height="16" fill="white" transform="translate(27.9784)"/>
</clipPath>
<clipPath id="clip2_1_313">
<rect width="24" height="16" fill="white" transform="translate(54.9784)"/>
</clipPath>
<clipPath id="clip3_1_313">
<rect width="24" height="16" fill="white" transform="translate(81.9784)"/>
</clipPath>
</defs>
</svg>
