<svg width="41" height="32" viewBox="0 0 41 32" fill="none" xmlns="http://www.w3.org/2000/svg">
<path fill-rule="evenodd" clip-rule="evenodd" d="M0.581451 13.785V12.2209C0.581451 10.9285 1.63068 9.87735 2.92419 9.87735H31.838C33.1316 9.87735 34.1808 10.9285 34.1808 12.2209V13.785H0.581451ZM34.1808 19.2541V29.4104C34.1808 30.7027 33.1316 31.7539 31.838 31.7539H2.92419C1.63068 31.7539 0.581451 30.7027 0.581451 29.4104V19.2541H34.1808ZM24.0249 24.7207H30.2762C30.7047 24.7207 31.0571 24.3729 31.0571 23.9412C31.0571 23.5096 30.7047 23.1592 30.2762 23.1592H24.0249C23.5924 23.1592 23.24 23.5096 23.24 23.9412C23.24 24.3729 23.5924 24.7207 24.0249 24.7207ZM24.0249 27.8463H30.2762C30.7047 27.8463 31.0571 27.4959 31.0571 27.0668C31.0571 26.6352 30.7047 26.2848 30.2762 26.2848H24.0249C23.5924 26.2848 23.24 26.6352 23.24 27.0668C23.24 27.4959 23.5924 27.8463 24.0249 27.8463ZM0.581451 17.69V15.3465H34.1808V17.69H0.581451ZM6.25609 9.09786L7.60967 2.14336C7.85395 0.873831 9.08742 0.0435571 10.3569 0.289846L38.7381 5.80469C40.0076 6.05352 40.8406 7.28242 40.5923 8.55449L37.3124 25.424C37.0922 26.5615 36.083 27.3461 34.9617 27.3207V12.2209C34.9617 10.4969 33.5641 9.09786 31.838 9.09786H6.25609Z" fill="url(#paint0_linear_1_255)"/>
<defs>
<linearGradient id="paint0_linear_1_255" x1="20.6088" y1="0.246582" x2="20.6088" y2="31.7539" gradientUnits="userSpaceOnUse">
<stop stop-color="#EDEDED"/>
<stop offset="1" stop-color="#878787"/>
</linearGradient>
</defs>
</svg>
