<svg width="24" height="17" viewBox="0 0 24 17" fill="none" xmlns="http://www.w3.org/2000/svg">
<path opacity="0.2" fill-rule="evenodd" clip-rule="evenodd" d="M15.3154 1C14.593 1.50713 14.0034 2.18088 13.5966 2.9642C13.1898 3.74753 12.9777 4.61734 12.9784 5.5C12.9784 6.83 13.4504 8.05 14.2354 9H3.97839C3.71318 9 3.45882 9.10536 3.27129 9.29289C3.08375 9.48043 2.97839 9.73478 2.97839 10V11C2.97839 11.2652 3.08375 11.5196 3.27129 11.7071C3.45882 11.8946 3.71318 12 3.97839 12H19.9784C20.2436 12 20.498 11.8946 20.6855 11.7071C20.873 11.5196 20.9784 11.2652 20.9784 11V10.4C21.776 9.99172 22.4624 9.39559 22.9784 8.663V15C22.9784 15.5304 22.7677 16.0391 22.3926 16.4142C22.0175 16.7893 21.5088 17 20.9784 17H2.97839C2.44796 17 1.93925 16.7893 1.56418 16.4142C1.18911 16.0391 0.978394 15.5304 0.978394 15V3C0.978394 2.46957 1.18911 1.96086 1.56418 1.58579C1.93925 1.21071 2.44796 1 2.97839 1H15.3154ZM22.0224 1.293C22.2614 1.495 22.4824 1.717 22.6844 1.956C22.519 1.68594 22.2922 1.45877 22.0224 1.293Z" fill="#D6D6D6"/>
<path opacity="0.4" fill-rule="evenodd" clip-rule="evenodd" d="M13.5784 3C13.1051 3.92493 12.9046 4.96542 13.0004 6H0.978394V3H13.5784Z" fill="#D6D6D6"/>
<path fill-rule="evenodd" clip-rule="evenodd" d="M18.4784 11C17.0197 11 15.6208 10.4205 14.5893 9.38909C13.5579 8.35764 12.9784 6.95869 12.9784 5.5C12.9784 4.04131 13.5579 2.64236 14.5893 1.61091C15.6208 0.579463 17.0197 0 18.4784 0C19.9371 0 21.336 0.579463 22.3675 1.61091C23.3989 2.64236 23.9784 4.04131 23.9784 5.5C23.9784 6.95869 23.3989 8.35764 22.3675 9.38909C21.336 10.4205 19.9371 11 18.4784 11ZM16.2944 3.221H15.6734L14.1574 3.991V4.777L15.3594 4.149V7.779H16.3024V3.22H16.2944V3.221ZM18.1014 3.85C18.5494 3.85 18.8634 4.101 18.8634 4.463C18.8634 4.856 18.4934 5.131 17.9594 5.131H17.7244V5.799H18.0074C18.5724 5.799 18.9574 6.081 18.9574 6.49C18.9574 6.883 18.5804 7.15 18.0464 7.15C17.6534 7.15 17.2604 7.024 16.8524 6.78V7.566C17.2924 7.755 17.7324 7.857 18.1644 7.857C19.1934 7.857 19.9004 7.331 19.9004 6.569C19.9004 6.034 19.5704 5.602 19.0204 5.429C19.4924 5.272 19.7984 4.856 19.7984 4.384C19.7984 3.646 19.1464 3.143 18.2034 3.143C17.7782 3.14762 17.3584 3.23845 16.9694 3.41V4.18C17.3474 3.968 17.7324 3.85 18.1014 3.85ZM21.4954 5.563C22.0694 5.563 22.4694 5.901 22.4694 6.341C22.4694 6.804 22.0694 7.126 21.4954 7.126C21.1494 7.126 20.7884 7.016 20.4194 6.789V7.598C20.8044 7.771 21.1974 7.858 21.5824 7.858C21.7864 7.858 21.9744 7.826 22.1554 7.778C22.5755 7.09822 22.7984 6.3151 22.7994 5.516L22.7844 5.186C22.4922 5.01277 22.157 4.92543 21.8174 4.934C21.6675 4.93346 21.5177 4.94415 21.3694 4.966V3.944H22.5014C22.4031 3.69245 22.2819 3.45044 22.1394 3.221H20.5524V5.696C20.8601 5.61331 21.1768 5.56864 21.4954 5.563Z" fill="#D6D6D6"/>
</svg>
