<svg width="73" height="30" viewBox="0 0 73 30" fill="none" xmlns="http://www.w3.org/2000/svg">
<path d="M34.0659 14.6092V23.0538H31.386V2.20062H38.4905C40.2911 2.20062 41.8264 2.80088 43.0827 4.00124C44.3669 5.20161 45.0089 6.66717 45.0089 8.39792C45.0089 10.1706 44.3669 11.6362 43.0827 12.8225C41.8404 14.0089 40.3051 14.5952 38.4905 14.5952H34.0659V14.6092ZM34.0659 4.76888V12.0409H38.5464C39.6072 12.0409 40.5006 11.6781 41.1984 10.9662C41.9102 10.2543 42.2731 9.38898 42.2731 8.41189C42.2731 7.44878 41.9102 6.5973 41.1984 5.88555C40.5004 5.14572 39.6212 4.78285 38.5464 4.78285H34.0659V4.76888Z" fill="url(#paint0_linear_1_275)"/>
<path d="M52.0158 8.31424C53.9978 8.31424 55.5611 8.84463 56.7056 9.90541C57.8502 10.9662 58.4224 12.4178 58.4224 14.2603V23.0538H55.8681V21.0718H55.7565C54.6538 22.7049 53.1742 23.5145 51.3318 23.5145C49.7546 23.5145 48.4425 23.0538 47.3817 22.1187C46.3209 21.1835 45.7905 20.0249 45.7905 18.6292C45.7905 17.1497 46.3489 15.9772 47.4655 15.1118C48.5822 14.2325 50.0757 13.7998 51.9321 13.7998C53.5232 13.7998 54.8354 14.0929 55.8543 14.6791V14.065C55.8543 13.1298 55.4914 12.3482 54.7516 11.6922C54.0117 11.0362 53.1464 10.7151 52.1554 10.7151C50.6619 10.7151 49.4755 11.3432 48.61 12.6134L46.2511 11.1339C47.5492 9.24941 49.4755 8.31424 52.0158 8.31424ZM48.5543 18.671C48.5543 19.3689 48.8474 19.9552 49.4475 20.4157C50.0338 20.8764 50.7317 21.1136 51.5273 21.1136C52.6579 21.1136 53.6628 20.6949 54.5423 19.8574C55.4217 19.0199 55.8682 18.0428 55.8682 16.9123C55.0307 16.2563 53.8723 15.9212 52.3788 15.9212C51.2901 15.9212 50.3828 16.1864 49.657 16.7028C48.9171 17.2472 48.5543 17.9033 48.5543 18.671Z" fill="url(#paint1_linear_1_275)"/>
<path d="M72.9946 8.77475L64.0615 29.3208H61.2978L64.6197 22.1325L58.7295 8.77475H61.6466L65.8899 19.0198H65.9458L70.0773 8.77475H72.9946Z" fill="url(#paint2_linear_1_275)"/>
<path d="M23.1829 10.3925H11.9496V14.9986L18.4191 15C18.1567 16.5326 17.3122 17.839 16.0183 18.71V18.7109C16.0188 18.7106 16.0193 18.7103 16.0198 18.71L15.9033 21.4631L19.8708 21.697C19.8702 21.6975 19.8697 21.698 19.8692 21.6985C22.1178 19.6174 23.4063 16.541 23.4063 12.9064C23.4062 12.0325 23.328 11.1965 23.1829 10.3925Z" fill="url(#paint3_linear_1_275)"/>
<path d="M16.0196 18.71C16.0192 18.7103 16.0186 18.7106 16.0182 18.7109C14.9464 19.4333 13.5664 19.8559 11.9523 19.8559C8.83269 19.8559 6.1863 17.7539 5.23858 14.9205H5.23816C5.2383 14.9209 5.23844 14.9215 5.23858 14.9219L1.92635 14.3973L1.26678 18.0033C3.23508 21.9082 7.27973 24.5877 11.9524 24.5877C15.1814 24.5877 17.8942 23.526 19.8692 21.6983C19.8698 21.6979 19.8704 21.6975 19.8708 21.6969L16.0196 18.71Z" fill="url(#paint4_linear_1_275)"/>
<path d="M4.86447 12.6341C4.86447 11.8385 4.99706 11.0694 5.23859 10.3464L4.20433 7.26443H1.26608C0.452386 8.87942 -0.00543213 10.7023 -0.00543213 12.6341C-0.00543213 14.5659 0.453812 16.3887 1.26608 18.0037L1.26665 18.0033L5.23859 14.9217C5.23845 14.9213 5.23831 14.9209 5.23816 14.9203C4.99692 14.1979 4.86447 13.4292 4.86447 12.6341Z" fill="url(#paint5_linear_1_275)"/>
<path d="M11.9523 0.679169C7.28057 0.679169 3.2342 3.35907 1.26605 7.26457L5.23842 10.3465C6.18614 7.51308 8.83253 5.41105 11.9521 5.41105C13.715 5.41105 15.2937 6.01829 16.5402 7.20469L19.9529 3.79479C17.8803 1.86414 15.178 0.679169 11.9523 0.679169Z" fill="url(#paint6_linear_1_275)"/>
<defs>
<linearGradient id="paint0_linear_1_275" x1="38.1974" y1="2.20062" x2="38.1974" y2="23.0538" gradientUnits="userSpaceOnUse">
<stop stop-color="#EDEDED"/>
<stop offset="1" stop-color="#878787"/>
</linearGradient>
<linearGradient id="paint1_linear_1_275" x1="52.1065" y1="8.31424" x2="52.1065" y2="23.5145" gradientUnits="userSpaceOnUse">
<stop stop-color="#EDEDED"/>
<stop offset="1" stop-color="#878787"/>
</linearGradient>
<linearGradient id="paint2_linear_1_275" x1="65.862" y1="8.77475" x2="65.862" y2="29.3208" gradientUnits="userSpaceOnUse">
<stop stop-color="#EDEDED"/>
<stop offset="1" stop-color="#878787"/>
</linearGradient>
<linearGradient id="paint3_linear_1_275" x1="17.6779" y1="10.3925" x2="17.6779" y2="21.6985" gradientUnits="userSpaceOnUse">
<stop stop-color="#EDEDED"/>
<stop offset="1" stop-color="#878787"/>
</linearGradient>
<linearGradient id="paint4_linear_1_275" x1="10.5688" y1="14.3973" x2="10.5688" y2="24.5877" gradientUnits="userSpaceOnUse">
<stop stop-color="#EDEDED"/>
<stop offset="1" stop-color="#878787"/>
</linearGradient>
<linearGradient id="paint5_linear_1_275" x1="2.61658" y1="7.26443" x2="2.61658" y2="18.0037" gradientUnits="userSpaceOnUse">
<stop stop-color="#EDEDED"/>
<stop offset="1" stop-color="#878787"/>
</linearGradient>
<linearGradient id="paint6_linear_1_275" x1="10.6095" y1="0.679169" x2="10.6095" y2="10.3465" gradientUnits="userSpaceOnUse">
<stop stop-color="#EDEDED"/>
<stop offset="1" stop-color="#878787"/>
</linearGradient>
</defs>
</svg>
