<svg width="34" height="48" viewBox="0 0 34 48" fill="none" xmlns="http://www.w3.org/2000/svg">
<path d="M9.15063 0.843765C8.44639 0.961137 7.71507 1.44868 7.29976 2.07166C6.73096 2.93841 6.7129 3.09189 6.7129 8.33752V13.0595H5.2954C4.50991 13.0595 3.58899 13.1046 3.25494 13.1498C2.14442 13.3123 1.2235 13.9443 0.781094 14.8472L0.528293 15.3618L0.474121 29.1214L0.726922 29.1846C1.15127 29.2839 1.50338 29.4916 1.88259 29.8618L2.24373 30.2048L6.84833 30.4396L11.4529 30.6834L11.5793 30.4667C12.1842 29.5187 13.3038 29.1485 14.2518 29.5909C14.9831 29.934 15.3894 30.6021 15.3894 31.4688C15.3894 31.9203 15.5971 32.4439 17.5292 36.9853C18.7029 39.7391 19.687 42.0052 19.7231 42.0233C19.7683 42.0414 19.9308 42.1407 20.0843 42.249C21.2851 43.0616 20.7434 44.9215 19.2988 44.9395H18.8564L18.0438 45.9869C17.6014 46.5647 17.2132 47.0703 17.2042 47.1154C17.1861 47.1606 20.2829 47.1786 24.1562 47.1696L31.1353 47.1425L31.6499 46.8988C32.3361 46.5828 32.932 46.014 33.23 45.391L33.4828 44.8854V15.3618L33.2932 14.9555C32.8417 14.0075 31.9118 13.3303 30.8193 13.1588C30.4943 13.1046 29.456 13.0595 28.499 13.0595H26.7655L26.7113 3.17315L26.4224 2.56823C26.0883 1.864 25.6098 1.3584 24.9959 1.05142L24.5444 0.825708L16.9604 0.816679C12.7892 0.807651 9.27703 0.816679 9.15063 0.843765ZM24.5896 3.50721V13.0595H21.881V15.443C21.881 16.7522 21.8539 17.8988 21.8268 17.9801C21.7636 18.1426 21.3302 18.3864 21.0955 18.3864C21.0142 18.3864 19.7502 17.1946 18.2695 15.7229L15.6061 13.0595H8.87977V3.50721L9.34925 2.94743H24.1201L24.5896 3.50721Z" fill="url(#paint0_linear_1_243)"/>
<path d="M2.60491 32.0366C2.56879 32.1991 2.41531 32.5602 2.26182 32.8491L1.98193 33.3547L3.99532 37.544C5.09681 39.8373 6.02676 41.7694 6.06287 41.8236C6.09898 41.8778 6.41499 41.95 6.7671 41.9771L7.40813 42.0312L9.74655 37.544L12.094 33.0568L11.787 32.6505C11.6155 32.4248 11.471 32.2352 11.453 32.2171C11.4439 32.1991 3.87794 31.7928 2.67714 31.7477C2.66811 31.7477 2.64102 31.8831 2.60491 32.0366Z" fill="url(#paint1_linear_1_243)"/>
<path d="M13.8994 33.4104L13.5473 33.5097L8.63574 42.8995L8.77117 43.1884C8.85243 43.3509 8.93369 43.4863 8.9698 43.4863C9.24066 43.4863 18.1248 42.4932 18.1519 42.4571C18.2061 42.4029 18.2241 42.4571 15.976 37.1663C15.1002 35.1078 14.3509 33.3923 14.3147 33.3652C14.2786 33.3291 14.0981 33.3562 13.8994 33.4104Z" fill="url(#paint2_linear_1_243)"/>
<path d="M0.48291 38.4124V42.8183L2.31572 43.1704C3.3179 43.36 4.19367 43.5316 4.24784 43.5496C4.31104 43.5767 4.3923 43.5226 4.42842 43.4323C4.4555 43.333 4.56385 43.1524 4.65413 43.017L4.82568 42.7642L2.73104 38.3853C1.57537 35.9746 0.600282 34.0064 0.555139 34.0064C0.519025 34.0064 0.48291 35.9927 0.48291 38.4124Z" fill="url(#paint3_linear_1_243)"/>
<path d="M12.9878 44.5782C10.8571 44.813 9.07845 45.0116 9.05136 45.0116C9.01525 45.0206 8.96108 45.129 8.92496 45.2644C8.84371 45.5985 8.39228 46.2034 8.06725 46.4201C7.85959 46.5555 7.79639 46.6729 7.79639 46.8896V47.1875L11.5252 47.1785H15.245L16.3736 45.7249C16.9966 44.9213 17.5202 44.2351 17.5292 44.19C17.5834 44.0726 17.1049 44.1178 12.9878 44.5782Z" fill="url(#paint4_linear_1_243)"/>
<path d="M0.536745 44.6782C0.69926 45.5811 1.42155 46.4659 2.36053 46.8993C2.84807 47.134 2.95642 47.143 4.57254 47.1701C6.1706 47.2062 6.26089 47.1972 6.26089 47.0347C6.26089 46.9173 6.13449 46.827 5.80043 46.7096C5.25871 46.511 4.61768 45.9151 4.44614 45.4366C4.37391 45.238 4.25654 45.0845 4.13916 45.0664C3.84122 44.9942 0.627031 44.3893 0.554802 44.3893C0.518688 44.3893 0.509659 44.5247 0.536745 44.6782Z" fill="url(#paint5_linear_1_243)"/>
<defs>
<linearGradient id="paint0_linear_1_243" x1="16.9784" y1="0.813293" x2="16.9784" y2="47.1875" gradientUnits="userSpaceOnUse">
<stop stop-color="#7066FF"/>
<stop offset="1" stop-color="#A49EFF"/>
</linearGradient>
<linearGradient id="paint1_linear_1_243" x1="16.9784" y1="0.813293" x2="16.9784" y2="47.1875" gradientUnits="userSpaceOnUse">
<stop stop-color="#7066FF"/>
<stop offset="1" stop-color="#A49EFF"/>
</linearGradient>
<linearGradient id="paint2_linear_1_243" x1="16.9784" y1="0.813293" x2="16.9784" y2="47.1875" gradientUnits="userSpaceOnUse">
<stop stop-color="#7066FF"/>
<stop offset="1" stop-color="#A49EFF"/>
</linearGradient>
<linearGradient id="paint3_linear_1_243" x1="16.9784" y1="0.813293" x2="16.9784" y2="47.1875" gradientUnits="userSpaceOnUse">
<stop stop-color="#7066FF"/>
<stop offset="1" stop-color="#A49EFF"/>
</linearGradient>
<linearGradient id="paint4_linear_1_243" x1="16.9784" y1="0.813293" x2="16.9784" y2="47.1875" gradientUnits="userSpaceOnUse">
<stop stop-color="#7066FF"/>
<stop offset="1" stop-color="#A49EFF"/>
</linearGradient>
<linearGradient id="paint5_linear_1_243" x1="16.9784" y1="0.813293" x2="16.9784" y2="47.1875" gradientUnits="userSpaceOnUse">
<stop stop-color="#7066FF"/>
<stop offset="1" stop-color="#A49EFF"/>
</linearGradient>
</defs>
</svg>
